<?xml version="1.0" encoding="UTF-8"?>
<svg version="1.1" xmlns="http://www.w3.org/2000/svg" width="665" height="375">
<path d="M0 0 C0.62777344 0.32871094 1.25554687 0.65742188 1.90234375 0.99609375 C7.03198631 4.13027282 9.49434903 8.21513047 11 14 C11 17.89794444 10.88870426 19.94039107 8.375 22.9375 C4.97380129 24.4590889 2.68717269 24.51749792 -1 24 C-3.63016161 21.8272578 -5.47336894 20.05326212 -7 17 C-9.21578841 16.45347701 -9.21578841 16.45347701 -11.8125 16.25 C-12.68519531 16.15203125 -13.55789063 16.0540625 -14.45703125 15.953125 C-17.20801558 16.00383439 -18.67126574 16.58864591 -21 18 C-21.08226668 21.04386724 -20.97608217 23.07175348 -20 26 C-17.1771656 26.92806397 -17.1771656 26.92806397 -13.8125 27.5 C-9.08675761 28.4986863 -5.16784134 29.47990989 -1 32 C-0.34386719 32.33644531 0.31226563 32.67289063 0.98828125 33.01953125 C7.58575515 36.62582868 9.68658792 41.05976377 12 48 C12.83710268 56.52648874 12.57929297 64.14612717 7 71 C-0.61256659 77.39931379 -7.91426011 80.30617089 -17.75 80 C-26.48598259 79.03915236 -34.12450601 75.39751793 -40.25 69.0625 C-42.4386957 66.25152808 -43.01682083 64.91729757 -43.75 61.3125 C-42.79049632 57.07469206 -41.47794028 55.57065151 -38 53 C-34.98183744 51.8845921 -33.16208199 51.5405157 -30.1328125 52.73828125 C-26.90073074 54.47502228 -25.04694749 55.92957876 -23 59 C-19.57767028 60.14077657 -16.91326783 60.09815117 -13.3125 60.0625 C-12.13300781 60.05347656 -10.95351563 60.04445312 -9.73828125 60.03515625 C-8.83464844 60.02355469 -7.93101562 60.01195312 -7 60 C-7 56.7 -7 53.4 -7 50 C-8.52625 49.62875 -10.0525 49.2575 -11.625 48.875 C-31.6311879 43.33641758 -31.6311879 43.33641758 -37.0234375 35.77734375 C-41.04871668 28.45133564 -40.88794382 20.61249286 -38.75 12.75 C-36.32960573 5.56653626 -32.75063757 2.55000252 -26.21875 -0.984375 C-18.06403171 -4.71716858 -7.85925766 -4.19273573 0 0 Z " fill="#E3C355" transform="translate(419,149)"/>
<path d="M0 0 C0.99 0.66 1.98 1.32 3 2 C5.00461299 1.34733531 7.00379834 0.67795528 9 0 C15.0719932 -0.48190422 18.55151234 0.38472592 24 3 C26.2608746 3.1490712 26.2608746 3.1490712 29 1.5 C34.87949438 -1.07227879 40.6786707 -0.65770997 46.75 1.0625 C51.11680444 3.66578726 55.19569711 6.98845815 56.55566406 12.08056641 C57.52115014 18.42412821 57.30616662 24.93108374 57.35009766 31.33789062 C57.36670046 33.11276319 57.39404722 34.88756773 57.43212891 36.66210938 C57.48692894 39.23342212 57.50876778 41.80318191 57.5234375 44.375 C57.54610687 45.16471191 57.56877625 45.95442383 57.59213257 46.76806641 C57.57601259 50.97771548 57.32884782 52.56664221 54.69384766 56.0390625 C52 58 52 58 48.375 58 C43.79300185 56.64237092 43.79300185 56.64237092 42 54 C41.68082834 51.23091461 41.53521454 48.67456114 41.5234375 45.90234375 C41.50785797 45.11227432 41.49227844 44.3222049 41.47622681 43.50819397 C41.4286993 40.98463931 41.40094242 38.46136109 41.375 35.9375 C41.33851601 33.41026339 41.29790268 30.88318366 41.25234985 28.35609436 C41.22511742 26.78362691 41.20376858 25.2110446 41.18881226 23.63841248 C41.21292135 19.68997146 41.21292135 19.68997146 40 16 C35.99745544 15.90818866 35.99745544 15.90818866 32 16 C29.99802232 18.00197768 30.86305623 22.04959527 30.859375 24.796875 C30.84104094 26.41147237 30.82147008 28.02605608 30.80078125 29.640625 C30.77184454 32.19294105 30.75000108 34.74438444 30.74951172 37.296875 C30.74617052 39.75600086 30.71157614 42.21310152 30.671875 44.671875 C30.6789447 45.43038757 30.6860144 46.18890015 30.69329834 46.97039795 C30.60230216 50.94575851 30.12904991 52.83115016 27.68847656 56.02441406 C25 58 25 58 21.3125 57.9375 C18 57 18 57 16 55 C15.77868824 52.31433667 15.67473008 49.72367283 15.65625 47.03515625 C15.6416272 46.24604355 15.62700439 45.45693085 15.61193848 44.64390564 C15.56535542 42.11682191 15.53120442 39.58981768 15.5 37.0625 C15.45889902 33.74059233 15.40522675 30.41924228 15.34375 27.09765625 C15.3384729 26.33195816 15.3331958 25.56626007 15.32775879 24.77735901 C15.25673672 20.99674026 15.14794337 19.22191506 13 16 C9.41642759 15.74984127 9.41642759 15.74984127 6 16 C3.64222809 19.67485193 3.73626611 23.21307509 3.76171875 27.43359375 C3.74630199 28.90170198 3.72999857 30.36980113 3.71289062 31.83789062 C3.69643517 34.13993468 3.6875117 36.44131011 3.69458008 38.7434082 C3.69720542 40.97423062 3.66905334 43.20304078 3.63671875 45.43359375 C3.64692551 46.11707382 3.65713226 46.80055389 3.66764832 47.50474548 C3.59022388 51.30557889 3.05244235 52.9327797 0.68676758 55.96508789 C-2 58 -2 58 -5.625 58.125 C-9 57 -9 57 -10.68603516 55.09179688 C-12.61855959 50.54451159 -12.42855323 46.29888191 -12.3984375 41.40625 C-12.40130768 40.38196899 -12.40417786 39.35768799 -12.40713501 38.30236816 C-12.40917307 36.14053798 -12.40366128 33.97868926 -12.39111328 31.81689453 C-12.37505647 28.51162402 -12.39097124 25.20757632 -12.41015625 21.90234375 C-12.40817377 19.79947647 -12.40433001 17.69660996 -12.3984375 15.59375 C-12.40451019 14.60717407 -12.41058289 13.62059814 -12.4168396 12.60412598 C-12.32680724 3.80262372 -12.32680724 3.80262372 -9 0 C-5.46627283 -1.17790906 -3.59454905 -0.82375082 0 0 Z " fill="#3C5D6F" transform="translate(190,170)"/>
<path d="M0 0 C5.6273294 3.77888213 7.58820523 7.60687467 9.875 13.875 C10.20741699 14.74487549 10.53983398 15.61475098 10.88232422 16.51098633 C14.47783086 26.02497725 17.77879641 35.64839311 21.06396484 45.27294922 C22.49479744 49.441546 23.96442415 53.5961793 25.4375 57.75 C29.42164081 68.99161845 29.42164081 68.99161845 29 75 C27.54906931 77.90186138 26.66685823 78.75431539 23.625 79.875 C20.42867421 80.02720599 18.7718713 79.60476759 16 78 C12.1102493 73.3899251 12.27754453 69.38772267 11 63 C1.76 63.33 -7.48 63.66 -17 64 C-18.32 67.63 -19.64 71.26 -21 75 C-23.875 78.25 -23.875 78.25 -27 80 C-30.61011341 80.07220227 -32.38463321 79.37868725 -35.4375 77.5 C-37.508209 74.1868656 -37.22350269 72.23354574 -36.6015625 68.453125 C-35.80097566 65.18839426 -34.62820999 62.21336794 -33.30078125 59.12890625 C-31.57992996 54.98956125 -30.08434431 50.77825419 -28.5625 46.5625 C-26.34494814 40.4648209 -23.96951337 34.54381995 -21.18359375 28.6796875 C-19.75474606 25.44473861 -18.59905055 22.15239916 -17.4375 18.8125 C-10.16670779 -1.86735449 -10.16670779 -1.86735449 0 0 Z M-4 27 C-5.00577013 29.76886123 -6.00480147 32.53984104 -7 35.3125 C-7.28617188 36.09818359 -7.57234375 36.88386719 -7.8671875 37.69335938 C-8.13789062 38.45068359 -8.40859375 39.20800781 -8.6875 39.98828125 C-8.93886719 40.68477783 -9.19023438 41.38127441 -9.44921875 42.09887695 C-10.13913536 44.150368 -10.13913536 44.150368 -10 47 C-5.38 47 -0.76 47 4 47 C3.1935234 42.96761701 2.21452873 39.22846213 1 35.3125 C0.649375 34.17425781 0.29875 33.03601563 -0.0625 31.86328125 C-0.89140019 29.09495316 -0.89140019 29.09495316 -2 27 C-2.66 27 -3.32 27 -4 27 Z " fill="#375A6C" transform="translate(122,148)"/>
<path d="M0 0 C1.2684375 0.804375 1.2684375 0.804375 2.5625 1.625 C3.366875 2.07875 4.17125 2.5325 5 3 C6.66767364 2.33585629 8.33414362 1.66868883 10 1 C17.4537486 0.15399508 24.26166052 -0.12295427 30.39453125 4.59765625 C30.92433594 5.06042969 31.45414063 5.52320313 32 6 C33.36125 7.051875 33.36125 7.051875 34.75 8.125 C39.98646984 14.8160448 41.71689681 22.55006301 41.37890625 30.9453125 C40.3751676 39.03730861 38.16674712 46.10566383 31.93359375 51.6015625 C25.33844495 56.37138729 19.15619432 58.42187212 11 58 C8.98838714 57.36924003 6.98587201 56.70764172 5 56 C5.02094727 56.61520508 5.04189453 57.23041016 5.06347656 57.86425781 C5.14677017 60.65933809 5.19870013 63.45415715 5.25 66.25 C5.30027344 67.70212891 5.30027344 67.70212891 5.3515625 69.18359375 C5.45052418 76.35831525 5.45052418 76.35831525 3.16796875 79.609375 C0.30362024 81.44668684 -1.5857188 82 -5 82 C-7.65394592 80.4432373 -7.65394592 80.4432373 -10 78 C-10.61473083 74.77453613 -10.61473083 74.77453613 -10.59936523 70.90820312 C-10.60330795 70.20203354 -10.60725067 69.49586395 -10.61131287 68.76829529 C-10.6180152 66.43855389 -10.58888038 64.11078103 -10.55859375 61.78125 C-10.55434236 60.15987528 -10.55201493 58.53849448 -10.55152893 56.91711426 C-10.54536533 53.52079641 -10.52267579 50.12513855 -10.48706055 46.72900391 C-10.44178801 42.37765166 -10.42703447 38.02689712 -10.42332363 33.67533112 C-10.41889252 30.32784134 -10.40358425 26.98047676 -10.3844471 23.63304138 C-10.37557351 22.0286919 -10.36883933 20.42432911 -10.36428642 18.81996155 C-10.35523236 16.57701232 -10.33283208 14.33460018 -10.30639648 12.09179688 C-10.29043678 10.17796204 -10.29043678 10.17796204 -10.27415466 8.22546387 C-10.01695606 5.19949016 -9.69620057 3.48369468 -8 1 C-5.17998673 -0.41000664 -3.12992745 -0.24548451 0 0 Z M6 20 C4.49856456 23.00287088 4.73425982 26.083109 4.6875 29.375 C4.65849609 30.04789063 4.62949219 30.72078125 4.59960938 31.4140625 C4.55604614 34.81869711 4.7456895 36.6600039 6.80859375 39.41796875 C9.9126018 41.65883018 12.19279891 41.9343586 16 42 C20.2319757 40.69785363 21.61975964 39.64640862 23.875 35.8125 C25.40551769 30.62574561 25.66669509 26.50010657 24.25 21.1875 C22.71939924 18.50894866 21.77783473 17.38891737 19 16 C13.12081876 15.34675764 10.28904035 15.58098873 6 20 Z " fill="#395B6D" transform="translate(557,169)"/>
<path d="M0 0 C0.86753906 0.09667969 1.73507812 0.19335938 2.62890625 0.29296875 C5 0.625 5 0.625 7.9375 1.3125 C10.30486239 1.90787629 10.30486239 1.90787629 13 -0.375 C16.38568806 -0.73517958 18.3272019 -0.75685838 21.3125 0.9375 C24.08768667 3.71268667 24.13165976 6.45309366 24.17700195 10.18481445 C24.19625481 11.56688835 24.19625481 11.56688835 24.21589661 12.97688293 C24.22328354 13.97064438 24.23067047 14.96440582 24.23828125 15.98828125 C24.246353 17.01302048 24.25442474 18.0377597 24.26274109 19.09355164 C24.27657442 21.26311555 24.28729993 23.43270116 24.29516602 25.60229492 C24.31237953 28.91432059 24.35627324 32.22534819 24.40039062 35.53710938 C24.41051775 37.645826 24.41903379 39.7545511 24.42578125 41.86328125 C24.44328934 42.85097 24.46079742 43.83865875 24.47883606 44.85627747 C24.46033213 50.7437432 23.95602368 54.15577488 20 58.625 C17.26876602 59.56919612 14.80755731 59.22908508 12 58.625 C9.5 57.125 9.5 57.125 8 55.625 C7.113125 56.12 6.22625 56.615 5.3125 57.125 C-1.04019293 59.79981807 -8.25235398 59.70095385 -14.81640625 57.81640625 C-22.28165471 54.52257907 -26.83414527 49.0551574 -30.375 41.8125 C-32.3910714 31.53053588 -32.76741579 22.58867817 -27.66015625 13.1484375 C-22.81050457 6.05774873 -15.67540046 2.13496893 -7.4453125 -0.0546875 C-4.84025784 -0.39592469 -2.60703146 -0.30143801 0 0 Z M-11.8125 21.125 C-14.45759156 24.46616829 -14.34247634 28.26700031 -14.26953125 32.33203125 C-13.82987867 36.07226405 -12.64222535 37.98277465 -10 40.625 C-5.22393239 41.95603523 -2.9589864 41.89225851 1.8125 40.5625 C5.72140523 38.18649878 6.67233412 36.9984876 8 32.625 C8.56537357 27.74865298 8.9845631 23.34798543 6.5 19 C-0.39533677 15.20756478 -5.88160617 16.21667407 -11.8125 21.125 Z " fill="#E3C256" transform="translate(346,169.375)"/>
<path d="M0 0 C3 2 3 2 4 5 C4.14715199 6.62567079 4.24721867 8.25586857 4.31640625 9.88671875 C4.35830078 10.82451172 4.40019531 11.76230469 4.44335938 12.72851562 C4.48267578 13.70498047 4.52199219 14.68144531 4.5625 15.6875 C4.60568359 16.67556641 4.64886719 17.66363281 4.69335938 18.68164062 C4.79941654 21.12095546 4.90147714 23.56037113 5 26 C5.99 25.67 6.98 25.34 8 25 C21.91819923 24.03371648 21.91819923 24.03371648 27 28 C35.26459634 36.70484118 35.35188237 46.04447128 35.31567383 57.51855469 C35.31249628 59.62747102 35.33609569 61.73500453 35.36132812 63.84375 C35.36360012 65.20051909 35.36430508 66.5572919 35.36328125 67.9140625 C35.36626221 69.1304541 35.36924316 70.3468457 35.37231445 71.60009766 C34.95759476 75.38723629 34.00228545 77.77414461 32 81 C29 83 29 83 25.5 82.9375 C22 82 22 82 20.31103516 79.91430664 C18.71679817 76.37046923 18.54159442 73.24865546 18.5234375 69.43359375 C18.50785797 68.7176857 18.49227844 68.00177765 18.47622681 67.26417542 C18.42892328 64.98862757 18.40102385 62.71338196 18.375 60.4375 C18.33840508 58.15826274 18.29769679 55.87919272 18.25234985 53.60011292 C18.22531208 52.18561112 18.20388006 50.77098792 18.18881226 49.35630798 C18.1353836 46.00212629 17.82203388 43.28813552 17 40 C13.37 40 9.74 40 6 40 C4.81121677 43.56634969 4.82711334 46.84129308 4.7890625 50.5546875 C4.76099366 52.07162537 4.73232919 53.58855231 4.703125 55.10546875 C4.66188996 57.4907195 4.62499153 59.87576629 4.59863281 62.26123047 C4.57095197 64.5678081 4.52508514 66.87346654 4.4765625 69.1796875 C4.47330963 69.88817841 4.47005676 70.59666931 4.46670532 71.32662964 C4.35876187 75.69640364 3.68040647 78.51823065 1 82 C-1.6369415 83.17498215 -4.1392857 83.31144873 -7 83 C-9.4801351 81.15579697 -10.63141163 79.73717673 -12 77 C-12.10749223 74.74956538 -12.14891951 72.49588716 -12.16113281 70.24291992 C-12.16609772 69.54840225 -12.17106262 68.85388458 -12.17617798 68.13832092 C-12.19080841 65.83569352 -12.19760358 63.53313504 -12.203125 61.23046875 C-12.20887642 59.63104754 -12.21463416 58.03162636 -12.22039795 56.4322052 C-12.23091092 53.07548704 -12.23675141 49.71879286 -12.24023438 46.36206055 C-12.24571499 42.06454651 -12.2697323 37.76734997 -12.29820633 33.46993542 C-12.3168487 30.16448549 -12.32203919 26.85911172 -12.32357025 23.55361366 C-12.3265945 21.96960022 -12.33461538 20.38558804 -12.34775543 18.80162621 C-12.36484731 16.58259473 -12.36292827 14.36433461 -12.35644531 12.14526367 C-12.36009094 10.88332687 -12.36373657 9.62139008 -12.36749268 8.32121277 C-11.9708747 4.73678028 -11.16247508 2.85490933 -9 0 C-5.88109857 -1.55945072 -3.34501482 -0.64552918 0 0 Z " fill="#3D5E6F" transform="translate(448,145)"/>
<path d="M0 0 C6.17782926 5.82978254 10.60955101 12.32347241 11.203125 20.953125 C11.36915445 32.63052965 9.42224675 38.2554665 1.34375 46.79296875 C-3.99847004 51.82355929 -9.0509832 53.701961 -16.3125 54.25 C-24.61245413 53.68729125 -31.55213313 49.84228851 -37.1875 43.75 C-43.67776906 35.64142239 -44.0614769 27.09948895 -43 17 C-41.16367245 9.29984391 -38.05798196 3.80758615 -31.44921875 -0.66015625 C-21.48729611 -6.10982047 -9.50701703 -7.01469122 0 0 Z M-26 16 C-27.73819756 21.21459267 -27.88247944 26.81702454 -25.8125 31.9375 C-22.89259509 35.26015042 -20.46103561 36.78239895 -16.0625 37.4375 C-12.10653184 36.87236169 -10.04627291 35.56163859 -7 33 C-4.56379698 29.01348596 -4.29118421 24.56408217 -5 20 C-6.28221838 16.61600097 -7.93329141 13.84601026 -10.8125 11.5625 C-17.80945015 9.76328425 -21.16129022 11.04608285 -26 16 Z " fill="#3B5D6E" transform="translate(530,174)"/>
<path d="M0 0 C2.49640462 2.36432435 2.97390951 3.77955594 3.38095093 7.21873474 C3.38333771 8.49160843 3.38572449 9.76448212 3.38818359 11.07592773 C3.39344055 11.78049103 3.39869751 12.48505432 3.40411377 13.21096802 C3.41729591 15.53540346 3.40858154 17.85915157 3.3984375 20.18359375 C3.40045899 21.80257803 3.40337105 23.42156143 3.40713501 25.0405426 C3.41155612 28.43247147 3.40513515 31.82416318 3.39111328 35.21606445 C3.37403502 39.55841458 3.38385503 43.90020787 3.40183067 48.2425375 C3.41268603 51.58576124 3.40921393 54.92885361 3.4014473 58.27208138 C3.39944942 59.87282439 3.40189008 61.47357942 3.40888596 63.0743084 C3.41652797 65.31475142 3.40485824 67.55430103 3.38818359 69.79467773 C3.38579681 71.06834702 3.38341003 72.3420163 3.38095093 73.65428162 C2.9691628 77.27082903 2.25621596 79.16416649 0 82 C-3.375 83.125 -3.375 83.125 -7 83 C-10.44590889 80.3784819 -11.84107386 78.87673942 -12.62145996 74.57162476 C-12.61940552 73.25940948 -12.61735107 71.94719421 -12.61523438 70.59521484 C-12.62078339 69.8677858 -12.6263324 69.14035675 -12.63204956 68.3908844 C-12.64381925 65.99688953 -12.61960565 63.60479864 -12.59375 61.2109375 C-12.59203845 59.54375291 -12.59210504 57.87656563 -12.59387207 56.2093811 C-12.5922205 52.72070463 -12.57354966 49.23267208 -12.54199219 45.74414062 C-12.502253 41.27042471 -12.49795491 36.7975494 -12.50545502 32.32369041 C-12.50852234 28.88357834 -12.49641379 25.44365562 -12.47932434 22.00358963 C-12.47229014 20.35375786 -12.46917032 18.70390463 -12.47001648 17.05405807 C-12.46822104 14.75097477 -12.44686472 12.44890447 -12.41992188 10.14599609 C-12.41150269 8.83537201 -12.4030835 7.52474792 -12.39440918 6.17440796 C-12 3 -12 3 -10.59875488 1.11587524 C-6.84477082 -1.50427493 -4.43230589 -1.01087678 0 0 Z " fill="#416272" transform="translate(168,145)"/>
<path d="M0 0 C3.02368793 0.72436632 3.02368793 0.72436632 5.125 -0.5625 C10.73227817 -0.93631854 14.29272538 -0.74740827 19.125 2.4375 C21.43915855 4.95584901 23.2074687 7.56519346 25.0625 10.4375 C27.05481976 13.53044139 27.05481976 13.53044139 29.8125 16.125 C32.71350537 19.02600537 33.05060491 20.76794419 33.5 24.8125 C33.125 28.4375 33.125 28.4375 31.25 31.375 C27.80793145 33.64676525 27.24931988 33.57587737 23.375 33.25 C19.91956244 33.03854785 18.52819659 33.16556211 15.6171875 35.12890625 C14.0841908 36.54300716 12.5859554 37.9961474 11.1328125 39.4921875 C7.90592137 42.61863066 5.79834259 43.37126958 1.3125 43.8125 C-3.29396858 43.7260747 -6.09307376 41.95878416 -9.875 39.4375 C-9.875 38.7775 -9.875 38.1175 -9.875 37.4375 C-10.7721875 37.004375 -10.7721875 37.004375 -11.6875 36.5625 C-13.875 35.4375 -13.875 35.4375 -16.875 33.4375 C-19.03061872 33.3454823 -19.03061872 33.3454823 -21.3125 33.5625 C-24.51922788 33.61985611 -25.58502475 33.61873453 -28.375 31.875 C-30.38721621 28.60514866 -30.80882801 26.27547545 -30.875 22.4375 C-29.11533918 17.6473122 -26.16234827 14.28610286 -22.875 10.4375 C-22.215 9.40625 -21.555 8.375 -20.875 7.3125 C-15.23384112 -0.79666589 -9.15605376 -1.32910458 0 0 Z M-14.73828125 9.75 C-16.98501884 13.08536302 -16.55102603 16.61795291 -15.875 20.4375 C-14.1354884 25.19826858 -11.59751186 28.05339831 -7.875 31.4375 C-7.32457031 31.99179688 -6.77414062 32.54609375 -6.20703125 33.1171875 C-3.48310192 35.72686814 -1.80269708 37.31649603 2 37.8125 C8.10867158 35.1246845 12.72460158 30.72906104 16.1875 25.0625 C17.39229484 20.40395993 17.96961823 16.207582 17.125 11.4375 C15.28848401 8.09928189 15.28848401 8.09928189 12.125 6.4375 C8.10465076 6.50564151 6.0073175 6.5551825 3.125 9.4375 C-0.17214793 9.10778521 -1.4976839 8.8148161 -3.875 6.4375 C-8.41947416 5.71451547 -11.3093614 6.58207405 -14.73828125 9.75 Z " fill="#E2C974" transform="translate(338.875,115.5625)"/>
<path d="M0 0 C1.4540625 0.433125 1.4540625 0.433125 2.9375 0.875 C6.37670323 1.87610066 6.37670323 1.87610066 9.9375 0.875 C15.13518513 0.49618566 20.30203582 0.18344015 24.9375 2.875 C26.11423198 5.22846396 26.10373866 6.7556033 26.125 9.375 C26.13917969 10.1690625 26.15335937 10.963125 26.16796875 11.78125 C25.9375 13.875 25.9375 13.875 23.9375 15.875 C21.39118004 16.15535532 18.92819113 16.34030331 16.375 16.4375 C11.78650773 16.23210009 11.78650773 16.23210009 7.9375 17.875 C7.81449698 20.23947604 7.75142931 22.57926115 7.7265625 24.9453125 C7.698468 26.41407315 7.6698034 27.88282298 7.640625 29.3515625 C7.599546 31.66861368 7.56266639 33.98546858 7.53613281 36.30273438 C7.50830957 38.53818806 7.46241297 40.77272056 7.4140625 43.0078125 C7.41080963 43.69038116 7.40755676 44.37294983 7.40420532 45.07620239 C7.27823616 50.07139673 6.20659129 53.5069819 3.9375 57.875 C1.16649606 59.26050197 -0.9959706 59.0627467 -4.0625 58.875 C-7.0625 56.875 -7.0625 56.875 -8.0625 53.875 C-8.17393588 52.29118749 -8.23131594 50.70326836 -8.25537109 49.11572266 C-8.27143402 48.15107086 -8.28749695 47.18641907 -8.30404663 46.1925354 C-8.34855781 41.79112521 -8.38954293 37.38986378 -8.41259766 32.98828125 C-8.42917438 30.66623932 -8.45648665 28.34424876 -8.49462891 26.02246094 C-8.54934953 22.67355905 -8.57126294 19.32585101 -8.5859375 15.9765625 C-8.60860687 14.9399649 -8.63127625 13.90336731 -8.65463257 12.83535767 C-8.64049644 8.01943484 -8.62958657 5.65047166 -5.72119141 1.67333984 C-3.0625 -0.125 -3.0625 -0.125 0 0 Z " fill="#DDBEB2" transform="translate(284.0625,169.125)"/>
<path d="M0 0 C3.84099883 0.96024971 5.11547804 2.45386943 7.5 5.625 C8.23019174 9.38621763 8.15310968 13.08927771 8.09375 16.91015625 C8.09379028 18.00339706 8.09383057 19.09663788 8.09387207 20.2230072 C8.08851831 22.53032186 8.070942 24.83763614 8.04199219 27.14477539 C8.00010712 30.67846299 8.00092717 34.21024645 8.0078125 37.74414062 C7.99732098 39.98699242 7.9843831 42.2298344 7.96875 44.47265625 C7.96854858 45.5300148 7.96834717 46.58737335 7.96813965 47.67677307 C7.95222778 48.66137009 7.93631592 49.6459671 7.91992188 50.66040039 C7.91150269 51.52468155 7.9030835 52.38896271 7.89440918 53.2794342 C7.41195762 56.14859123 6.48762678 57.52333597 4.5 59.625 C0.87319655 60.8076533 -0.80474847 60.93400068 -4.3125 59.375 C-6.5 57.625 -6.5 57.625 -7.5 54.625 C-7.61143588 53.04118749 -7.66881594 51.45326836 -7.69287109 49.86572266 C-7.70893402 48.90107086 -7.72499695 47.93641907 -7.74154663 46.9425354 C-7.78605781 42.54112521 -7.82704293 38.13986378 -7.85009766 33.73828125 C-7.86667438 31.41623932 -7.89398665 29.09424876 -7.93212891 26.77246094 C-7.98684953 23.42355905 -8.00876294 20.07585101 -8.0234375 16.7265625 C-8.04610687 15.6899649 -8.06877625 14.65336731 -8.09213257 13.58535767 C-8.07099156 6.38299805 -8.07099156 6.38299805 -5.12353516 2.47021484 C-2.5 0.625 -2.5 0.625 0 0 Z " fill="#A0BEBD" transform="translate(261.5,167.375)"/>
<path d="M0 0 C12.35188415 -0.06939732 24.70372221 -0.12275894 37.05576134 -0.15543652 C42.79082481 -0.17111718 48.52575528 -0.1923992 54.26074219 -0.22631836 C59.79149311 -0.25882625 65.32211581 -0.27683491 70.85295486 -0.28463173 C72.9669662 -0.29019068 75.08097022 -0.30104538 77.19492722 -0.31719017 C80.14752321 -0.33885052 83.09958391 -0.34197171 86.05224609 -0.34057617 C86.9333757 -0.351362 87.81450531 -0.36214783 88.72233582 -0.3732605 C91.15292358 -0.36076355 91.15292358 -0.36076355 95 0 C95.99 1.485 95.99 1.485 97 3 C94.35120522 5.64879478 92.41153507 5.24083501 88.80801392 5.25994873 C87.93937714 5.25432922 87.07074036 5.24870972 86.17578125 5.24291992 C84.8049086 5.24576744 84.8049086 5.24576744 83.40634155 5.24867249 C80.37497472 5.25238759 77.34384566 5.24166558 74.3125 5.23046875 C72.21264677 5.22927725 70.112793 5.22882372 68.01293945 5.2290802 C63.60787631 5.22751406 59.2028943 5.21921446 54.79785156 5.20581055 C49.14150303 5.18882054 43.48524374 5.18499614 37.82887268 5.18575573 C33.49156843 5.18548424 29.15428382 5.18000646 24.81698608 5.17275429 C22.73090768 5.1695643 20.64482705 5.16759945 18.55874634 5.16686058 C15.6471983 5.16470051 12.73574628 5.15596345 9.82421875 5.14526367 C8.95558197 5.14571686 8.08694519 5.14617004 7.19198608 5.14663696 C1.22895278 5.11447639 1.22895278 5.11447639 -1 4 C-0.67 2.68 -0.34 1.36 0 0 Z " fill="#657176" transform="translate(84,247)"/>
<path d="M0 0 C3.47678093 1.15892698 3.66265531 1.69306249 5.375 4.75 C7.51586355 8.37649311 9.97340347 11.0574756 13 14 C14.21260877 17.63782632 14.39544552 20.17735999 14 24 C12.125 26.9375 12.125 26.9375 9 29 C6.7578125 29.0234375 6.7578125 29.0234375 4.25 28.8125 C0.79456244 28.60104785 -0.59680341 28.72806211 -3.5078125 30.69140625 C-5.0408092 32.10550716 -6.5390446 33.5586474 -7.9921875 35.0546875 C-11.21907863 38.18113066 -13.32665741 38.93376958 -17.8125 39.375 C-22.41896858 39.2885747 -25.21807376 37.52128416 -29 35 C-29 34.34 -29 33.68 -29 33 C-29.8971875 32.566875 -29.8971875 32.566875 -30.8125 32.125 C-33 31 -33 31 -36 29 C-38.30947912 28.9037717 -40.53883623 29.06515381 -42.84375 29.22265625 C-45 29 -45 29 -48 26 C-43.05 25.67 -38.1 25.34 -33 25 C-33.66 24.67 -34.32 24.34 -35 24 C-37.42886571 18.73745763 -37.20143484 13.66255723 -37 8 C-36.34 7.67 -35.68 7.34 -35 7 C-34.85304688 8.21236328 -34.85304688 8.21236328 -34.703125 9.44921875 C-33.63342864 17.49552578 -33.63342864 17.49552578 -29 24 C-29 24.66 -29 25.32 -29 26 C-28.443125 26.2475 -27.88625 26.495 -27.3125 26.75 C-25 28 -25 28 -22.625 30.1875 C-20.14389164 32.23156522 -20.14389164 32.23156522 -17.1875 32.1875 C-11.1019625 29.92033897 -6.71981144 25.21694917 -3 20 C-3 21.65 -3 23.3 -3 25 C1.25800538 26.41933513 5.22911538 26.72651677 9.4375 25 C9.953125 24.67 10.46875 24.34 11 24 C11.27455387 19.97918114 11.27455387 19.97918114 11 16 C9.15604365 14.1371581 9.15604365 14.1371581 7 13 C6.505 11.515 6.505 11.515 6 10 C5.54625 9.54625 5.0925 9.0925 4.625 8.625 C2.61634983 6.61634983 1.34333353 4.49476227 0 2 C0 1.34 0 0.68 0 0 Z " fill="#E0C87D" transform="translate(358,120)"/>
<path d="M0 0 C8.66666667 0 17.33333333 0 26 0 C25.67 1.32 25.34 2.64 25 4 C23.68 4 22.36 4 21 4 C21 8.95 21 13.9 21 19 C19.68 19 18.36 19 17 19 C17 14.05 17 9.1 17 4 C15.68 4 14.36 4 13 4 C12.34 5.32 11.68 6.64 11 8 C11.99 9.485 11.99 9.485 13 11 C12.79874167 13.68344433 12.29749125 15.49251493 10.9375 17.8125 C7.79119842 19.74087839 4.58327337 19.54382319 1 19 C-1.0625 17.8125 -1.0625 17.8125 -2 16 C-1.6875 13.4375 -1.6875 13.4375 -1 11 C-0.9151689 8.91304812 -0.9151689 8.91304812 -1.625 6.625 C-2.05973031 3.58188786 -1.45646146 2.6127362 0 0 Z M3 4 C3.33 4.99 3.66 5.98 4 7 C4.99 7 5.98 7 7 7 C7 6.01 7 5.02 7 4 C5.68 4 4.36 4 3 4 Z M1 11 C1.99 12.485 1.99 12.485 3 14 C4.32 14 5.64 14 7 14 C7 13.34 7 12.68 7 12 C4.03 11.505 4.03 11.505 1 11 Z " fill="#4D6063" transform="translate(394,241)"/>
<path d="M0 0 C3.0625 1.9375 3.0625 1.9375 5 5 C5.91259488 9.50593723 5.55514129 12.88971742 3.5 17 C0.10702534 19.71437973 -2.68177378 20.40690978 -7 20 C-11.20844775 18.12957878 -12.6258228 16.8418987 -14.5 12.625 C-15.05465023 8.60378582 -14.8066096 6.6132192 -13 3 C-9.66415437 -1.00301476 -4.8215253 -0.88366033 0 0 Z " fill="#9ABDBD" transform="translate(266,146)"/>
<path d="M0 0 C18.15 0 36.3 0 55 0 C55.495 1.485 55.495 1.485 56 3 C52.70659012 5.19560659 51.73918753 5.24889706 47.91772461 5.24291992 C46.88332748 5.24599655 45.84893036 5.24907318 44.78318787 5.25224304 C43.66750931 5.24505753 42.55183075 5.23787201 41.40234375 5.23046875 C40.2571376 5.23001053 39.11193146 5.22955231 37.93202209 5.2290802 C35.51025354 5.22605785 33.08848694 5.21817209 30.66674805 5.20581055 C26.94898637 5.1875564 23.23147368 5.18530084 19.51367188 5.18554688 C17.16406034 5.18063164 14.81445049 5.1748033 12.46484375 5.16796875 C11.34714096 5.16685593 10.22943817 5.1657431 9.0778656 5.16459656 C7.53099815 5.15502678 7.53099815 5.15502678 5.95288086 5.14526367 C5.04259628 5.14145187 4.13231171 5.13764008 3.19444275 5.13371277 C1 5 1 5 -1 4 C-0.67 2.68 -0.34 1.36 0 0 Z " fill="#6D777F" transform="translate(482,247)"/>
<path d="M0 0 C0.98871094 -0.02578125 1.97742188 -0.0515625 2.99609375 -0.078125 C3.84300781 0.03015625 4.68992188 0.1384375 5.5625 0.25 C7.74294585 3.52066878 7.66107402 4.50418727 7.5625 8.25 C7.8925 8.58 8.2225 8.91 8.5625 9.25 C9.03010816 15.56271015 9.03010816 15.56271015 7.3984375 17.9609375 C4.84705245 19.75233551 3.02350065 19.58142482 -0.0625 19.5 C-1.04476562 19.48453125 -2.02703125 19.4690625 -3.0390625 19.453125 C-5.4375 19.25 -5.4375 19.25 -6.4375 18.25 C-6.53736975 15.40664952 -6.57627881 12.59302837 -6.5625 9.75 C-6.56636719 8.95207031 -6.57023438 8.15414062 -6.57421875 7.33203125 C-6.56194433 0.10239705 -6.56194433 0.10239705 0 0 Z M-1.4375 4.25 C-1.4375 5.24 -1.4375 6.23 -1.4375 7.25 C-0.1175 7.25 1.2025 7.25 2.5625 7.25 C2.5625 6.26 2.5625 5.27 2.5625 4.25 C1.2425 4.25 -0.0775 4.25 -1.4375 4.25 Z M-1.4375 11.25 C-1.4375 12.24 -1.4375 13.23 -1.4375 14.25 C0.2125 14.25 1.8625 14.25 3.5625 14.25 C3.5625 13.59 3.5625 12.93 3.5625 12.25 C1.9125 11.92 0.2625 11.59 -1.4375 11.25 Z " fill="#59676F" transform="translate(227.4375,240.75)"/>
<path d="M0 0 C1.79133978 -0.05391993 3.58313899 -0.09275571 5.375 -0.125 C6.37273437 -0.14820313 7.37046875 -0.17140625 8.3984375 -0.1953125 C11 0 11 0 13 2 C13.04080783 3.99958364 13.04254356 6.00045254 13 8 C13.33 8.33 13.66 8.66 14 9 C14.3125 12.375 14.3125 12.375 14 16 C11.82479054 18.20535093 10.514118 18.9415775 7.421875 19.29296875 C6.54015625 19.25816406 5.6584375 19.22335937 4.75 19.1875 C3.85796875 19.16042969 2.9659375 19.13335937 2.046875 19.10546875 C1.37140625 19.07066406 0.6959375 19.03585937 0 19 C-1.17245774 15.48262679 -1.13266285 12.6424868 -1.125 8.9375 C-1.12757813 7.68839844 -1.13015625 6.43929687 -1.1328125 5.15234375 C-1 2 -1 2 0 0 Z M4 4 C4 4.99 4 5.98 4 7 C5.32 6.67 6.64 6.34 8 6 C8 5.34 8 4.68 8 4 C6.68 4 5.36 4 4 4 Z M4 11 C4 11.99 4 12.98 4 14 C5.65 14 7.3 14 9 14 C8.67 13.01 8.34 12.02 8 11 C6.68 11 5.36 11 4 11 Z " fill="#24323B" transform="translate(256,241)"/>
<path d="M0 0 C2.57421875 0.546875 2.57421875 0.546875 5.26171875 3.109375 C6.7474171 7.00048974 7.17428456 9.42142258 6.57421875 13.546875 C4.7785947 16.30016521 3.52166953 18.07314961 0.57421875 19.546875 C-7.32200767 19.98555425 -7.32200767 19.98555425 -10.42578125 17.546875 C-12.54098503 14.3376003 -13.44211604 12.34727965 -13.36328125 8.484375 C-10.9590433 0.95109609 -7.599467 -0.36526143 0 0 Z M-5.42578125 4.546875 C-7.5749391 7.77061177 -7.80864928 8.81391174 -7.42578125 12.546875 C-5.59662484 14.78532515 -5.59662484 14.78532515 -2.92578125 14.859375 C-2.10078125 14.75625 -1.27578125 14.653125 -0.42578125 14.546875 C1.88562171 11.78539344 1.88562171 11.78539344 1.26171875 8.984375 C0.66182037 6.56572889 0.66182037 6.56572889 -0.42578125 4.546875 C-2.84197948 4.29656523 -2.84197948 4.29656523 -5.42578125 4.546875 Z " fill="#445358" transform="translate(432.42578125,240.453125)"/>
<path d="M0 0 C9.08203125 -0.48828125 9.08203125 -0.48828125 12 0 C13.94140625 2.359375 13.94140625 2.359375 15 5 C14.125 7.5625 14.125 7.5625 13 10 C13.25723969 12.02919843 13.25723969 12.02919843 14 14 C14.34060811 15.66519519 14.67558396 17.33157466 15 19 C10.16743695 18.58578031 8.17320782 16.53586014 5 13 C5 14.98 5 16.96 5 19 C3.35 19 1.7 19 0 19 C0 12.73 0 6.46 0 0 Z M5 4 C5 5.32 5 6.64 5 8 C6.32 7.67 7.64 7.34 9 7 C9 6.01 9 5.02 9 4 C7.68 4 6.36 4 5 4 Z " fill="#5A696D" transform="translate(440,241)"/>
<path d="M0 0 C4.30378762 0.04797215 4.30378762 0.04797215 6.75 2.0625 C7.78111494 4.71393843 7.39710855 5.65301499 6.625 8.3125 C7.615 9.7975 7.615 9.7975 8.625 11.3125 C8.42374167 13.99594433 7.92249125 15.80501493 6.5625 18.125 C3.41678251 20.05302039 0.20780381 19.85738475 -3.375 19.3125 C-5.375 18.125 -5.375 18.125 -6.375 16.3125 C-6.5625 13.8125 -6.5625 13.8125 -6.375 11.3125 C-6.375 10.3225 -6.375 9.3325 -6.375 8.3125 C-5.39177354 0.1657665 -5.39177354 0.1657665 0 0 Z M-1.375 4.3125 C-1.045 5.3025 -0.715 6.2925 -0.375 7.3125 C0.615 7.3125 1.605 7.3125 2.625 7.3125 C2.625 6.3225 2.625 5.3325 2.625 4.3125 C1.305 4.3125 -0.015 4.3125 -1.375 4.3125 Z M-2.375 11.3125 C-2.045 12.3025 -1.715 13.2925 -1.375 14.3125 C-0.055 14.3125 1.265 14.3125 2.625 14.3125 C2.625 13.6525 2.625 12.9925 2.625 12.3125 C0.975 11.9825 -0.675 11.6525 -2.375 11.3125 Z " fill="#4B5A60" transform="translate(300.375,240.6875)"/>
<path d="M0 0 C-0.16242188 0.55945313 -0.32484375 1.11890625 -0.4921875 1.6953125 C-1.80104897 7.63552994 -1.24323789 14.09462004 0 20 C0.99 20.33 1.98 20.66 3 21 C3 21.33 3 21.66 3 22 C0.7089095 22.19441368 -1.58290337 22.38033135 -3.875 22.5625 C-5.15117187 22.66691406 -6.42734375 22.77132812 -7.7421875 22.87890625 C-11 23 -11 23 -13 22 C-13.77811718 18.18015204 -14.24386556 15.73159669 -13 12 C-12.01 11.195625 -11.02 10.39125 -10 9.5625 C-6.91937137 7.34737467 -6.91937137 7.34737467 -6.125 4.6875 C-6.08375 4.130625 -6.0425 3.57375 -6 3 C-5.34 3 -4.68 3 -4 3 C-4 2.34 -4 1.68 -4 1 C-2 0 -2 0 0 0 Z " fill="#E4C356" transform="translate(323,124)"/>
<path d="M0 0 C3.96 0 7.92 0 12 0 C11.67 1.32 11.34 2.64 11 4 C9.865625 4.12375 8.73125 4.2475 7.5625 4.375 C5.7990625 4.684375 5.7990625 4.684375 4 5 C3.67 5.66 3.34 6.32 3 7 C5.64 7 8.28 7 11 7 C11 8.32 11 9.64 11 11 C8.29120665 12.35439668 5.99066732 12.06501451 3 12 C3 12.66 3 13.32 3 14 C5.64 14 8.28 14 11 14 C11.33 15.65 11.66 17.3 12 19 C10.02090602 19.02686553 8.04171029 19.04633375 6.0625 19.0625 C4.96035156 19.07410156 3.85820312 19.08570313 2.72265625 19.09765625 C0 19 0 19 -1 18 C-1.10002455 15.34346557 -1.13877463 12.71870728 -1.125 10.0625 C-1.12886719 9.32064453 -1.13273437 8.57878906 -1.13671875 7.81445312 C-1.12663501 2.25327002 -1.12663501 2.25327002 0 0 Z " fill="#69787C" transform="translate(457,241)"/>
<path d="M0 0 C1.98 0 3.96 0 6 0 C6.26554688 0.74765625 6.53109375 1.4953125 6.8046875 2.265625 C7.15789062 3.25046875 7.51109375 4.2353125 7.875 5.25 C8.39707031 6.71179688 8.39707031 6.71179688 8.9296875 8.203125 C9.91837574 10.9468328 9.91837574 10.9468328 11.15625 13.21875 C12 15 12 15 11.625 17.25 C11.315625 18.11625 11.315625 18.11625 11 19 C9.68 19 8.36 19 7 19 C6.67 17.35 6.34 15.7 6 14 C4.02 14 2.04 14 0 14 C-0.66 15.65 -1.32 17.3 -2 19 C-3.32 18.67 -4.64 18.34 -6 18 C-5.31583566 13.82423832 -3.98634991 10.11919593 -2.4375 6.1875 C-1.75494141 4.44533203 -1.75494141 4.44533203 -1.05859375 2.66796875 C-0.70925781 1.78753906 -0.35992187 0.90710938 0 0 Z " fill="#253742" transform="translate(200,241)"/>
<path d="M0 0 C2.36736239 0.59537629 2.36736239 0.59537629 5.0625 -1.6875 C8.44818806 -2.04767958 10.3897019 -2.06935838 13.375 -0.375 C15.49581032 1.74581032 16.01606896 3.48427651 16.18275452 6.45756531 C16.18053391 7.28585342 16.17831329 8.11414154 16.17602539 8.9675293 C16.17594986 9.90827805 16.17587433 10.84902679 16.17579651 11.81828308 C16.17063522 12.83086685 16.16547394 13.84345062 16.16015625 14.88671875 C16.1587413 15.92568802 16.15732635 16.96465729 16.15586853 18.03511047 C16.15026656 21.35676948 16.13771372 24.67836133 16.125 28 C16.11998525 30.25065007 16.1154223 32.50130119 16.11132812 34.75195312 C16.10029649 40.27215837 16.08355643 45.79232439 16.0625 51.3125 C15.7325 51.3125 15.4025 51.3125 15.0625 51.3125 C15.0625 36.1325 15.0625 20.9525 15.0625 5.3125 C14.4025 5.3125 13.7425 5.3125 13.0625 5.3125 C12.5675 3.3325 12.5675 3.3325 12.0625 1.3125 C7.92156302 1.10279441 7.92156302 1.10279441 4.0625 2.3125 C2.24908158 2.39721364 0.43255839 2.41971083 -1.3828125 2.41015625 C-2.99736328 2.40532227 -2.99736328 2.40532227 -4.64453125 2.40039062 C-5.77246094 2.39201172 -6.90039062 2.38363281 -8.0625 2.375 C-9.19816406 2.37048828 -10.33382813 2.36597656 -11.50390625 2.36132812 C-14.31515638 2.34951615 -17.1263023 2.33304507 -19.9375 2.3125 C-20.21980469 2.951875 -20.50210937 3.59125 -20.79296875 4.25 C-22.34886863 7.05380592 -23.97562448 7.21040678 -26.9375 8.3125 C-28.61173683 9.63631517 -30.27961215 10.96826661 -31.9375 12.3125 C-32.5975 12.3125 -33.2575 12.3125 -33.9375 12.3125 C-31.97309484 6.27604666 -28.37128468 4.20775321 -22.9375 1.3125 C-15.03894615 -2.15485248 -8.27840345 -1.93749868 0 0 Z " fill="#E0C67F" transform="translate(353.9375,170.6875)"/>
<path d="M0 0 C1.95803507 -0.05389087 3.91648909 -0.09274217 5.875 -0.125 C7.51082031 -0.15980469 7.51082031 -0.15980469 9.1796875 -0.1953125 C12 0 12 0 14 2 C14.43662786 5.9296507 14.59751439 8.13692366 12.3125 11.4375 C9.61589191 13.25953249 8.18873549 13.35430394 5 13 C5 14.65 5 16.3 5 18 C3.0625 18.5625 3.0625 18.5625 1 19 C0 18 0 18 -0.11352539 16.23413086 C-0.10828857 15.48526611 -0.10305176 14.73640137 -0.09765625 13.96484375 C-0.09443359 13.15595703 -0.09121094 12.34707031 -0.08789062 11.51367188 C-0.07951172 10.66353516 -0.07113281 9.81339844 -0.0625 8.9375 C-0.05798828 8.08349609 -0.05347656 7.22949219 -0.04882812 6.34960938 C-0.03700373 4.23304337 -0.01906769 2.11651315 0 0 Z M5 4 C5 5.32 5 6.64 5 8 C6.65 7.67 8.3 7.34 10 7 C9.67 6.01 9.34 5.02 9 4 C7.68 4 6.36 4 5 4 Z " fill="#2B3E46" transform="translate(343,241)"/>
<path d="M0 0 C1.65 0 3.3 0 5 0 C5.84600276 2.0364495 6.6762825 4.07943487 7.5 6.125 C7.9640625 7.26195312 8.428125 8.39890625 8.90625 9.5703125 C9.98315041 12.9471645 10.21360807 15.48614728 10 19 C9.01 19 8.02 19 7 19 C6.79375 18.360625 6.5875 17.72125 6.375 17.0625 C5.10461791 14.65074923 5.10461791 14.65074923 1.875 14.25 C0.92625 14.1675 -0.0225 14.085 -1 14 C-1.66 15.65 -2.32 17.3 -3 19 C-3.99 19 -4.98 19 -6 19 C-5.59524765 11.84937514 -3.17476348 6.37295696 0 0 Z M2 8 C1.67 8.66 1.34 9.32 1 10 C1.66 10 2.32 10 3 10 C2.67 9.34 2.34 8.68 2 8 Z " fill="#606C70" transform="translate(243,241)"/>
<path d="M0 0 C0.98871094 -0.01417969 1.97742188 -0.02835938 2.99609375 -0.04296875 C5.5625 0.1875 5.5625 0.1875 7.5625 2.1875 C8.13434537 7.33410832 8.13434537 7.33410832 7.5625 10.1875 C4.91755622 12.60573431 3.3070372 13.13786419 -0.25 13.375 C-0.971875 13.313125 -1.69375 13.25125 -2.4375 13.1875 C-2.4375 15.1675 -2.4375 17.1475 -2.4375 19.1875 C-3.7575 19.1875 -5.0775 19.1875 -6.4375 19.1875 C-6.46433987 16.20827407 -6.48426037 13.22928705 -6.5 10.25 C-6.50837891 9.39986328 -6.51675781 8.54972656 -6.52539062 7.67382812 C-6.52861328 6.86494141 -6.53183594 6.05605469 -6.53515625 5.22265625 C-6.54039307 4.4737915 -6.54562988 3.72492676 -6.55102539 2.95336914 C-6.30065659 -0.94107717 -3.21485066 0.0209028 0 0 Z M-2.4375 4.1875 C-2.4375 5.5075 -2.4375 6.8275 -2.4375 8.1875 C-0.7875 7.8575 0.8625 7.5275 2.5625 7.1875 C2.2325 6.1975 1.9025 5.2075 1.5625 4.1875 C0.2425 4.1875 -1.0775 4.1875 -2.4375 4.1875 Z " fill="#414F54" transform="translate(334.4375,240.8125)"/>
<path d="M0 0 C1.32 0 2.64 0 4 0 C4.33 4.62 4.66 9.24 5 14 C6.65 13.34 8.3 12.68 10 12 C10.33 8.04 10.66 4.08 11 0 C12.32 0 13.64 0 15 0 C15.0814222 2.22855574 15.13938079 4.45797655 15.1875 6.6875 C15.22230469 7.92886719 15.25710938 9.17023438 15.29296875 10.44921875 C14.9796252 14.24694258 14.4657126 16.10972761 12 19 C9.84375 19.59375 9.84375 19.59375 7.5 19.5 C6.7265625 19.4896875 5.953125 19.479375 5.15625 19.46875 C3 19 3 19 1.23046875 17.98046875 C-0.7442027 14.80218803 -0.31068254 11.42901297 -0.1875 7.8125 C-0.17396484 7.06291016 -0.16042969 6.31332031 -0.14648438 5.54101562 C-0.11118539 3.69370233 -0.05737917 1.84675934 0 0 Z " fill="#465258" transform="translate(310,241)"/>
<path d="M0 0 C7.71428571 3.71428571 7.71428571 3.71428571 10 6 C10.07179964 7.51928038 10.08392007 9.04167482 10.0625 10.5625 C10.05347656 11.38878906 10.04445313 12.21507812 10.03515625 13.06640625 C10.02355469 13.70449219 10.01195312 14.34257812 10 15 C9.0409375 15.2165625 9.0409375 15.2165625 8.0625 15.4375 C6.02454854 15.81007181 6.02454854 15.81007181 5 17 C-1.46153846 17.35897436 -1.46153846 17.35897436 -5 15 C-5.1875 12.375 -5.1875 12.375 -5 10 C-4.01 10 -3.02 10 -2 10 C-1.93941406 9.36191406 -1.87882812 8.72382813 -1.81640625 8.06640625 C-1.73261719 7.24011719 -1.64882813 6.41382813 -1.5625 5.5625 C-1.48128906 4.73878906 -1.40007812 3.91507813 -1.31640625 3.06640625 C-1 1 -1 1 0 0 Z " fill="#E4C257" transform="translate(360,130)"/>
<path d="M0 0 C2.3125 -0.25 2.3125 -0.25 5 0 C6.8125 2 6.8125 2 8 4 C8.391875 3.34 8.78375 2.68 9.1875 2 C11 0 11 0 13.6875 -0.25 C14.8321875 -0.12625 14.8321875 -0.12625 16 0 C15.62776669 3.25704145 15.17823892 4.79391125 13 7.3125 C10.29839695 10.9427791 10.30315699 13.52843436 10 18 C8.68 18.33 7.36 18.66 6 19 C5.85304688 18.00419922 5.85304688 18.00419922 5.703125 16.98828125 C4.7700319 11.47820561 3.76663478 8.26885275 0 4 C0 2.68 0 1.36 0 0 Z " fill="#404D53" transform="translate(368,241)"/>
<path d="M0 0 C1.16660156 0.00322266 2.33320312 0.00644531 3.53515625 0.00976562 C4.75847656 0.01814453 5.98179687 0.02652344 7.2421875 0.03515625 C8.47324219 0.03966797 9.70429687 0.04417969 10.97265625 0.04882812 C14.02088142 0.06064295 17.06901064 0.07711597 20.1171875 0.09765625 C20.6796875 2.03515625 20.6796875 2.03515625 21.1171875 4.09765625 C19.34730485 5.8675389 16.79753332 5.22794693 14.40234375 5.23046875 C13.24154297 5.23175781 12.08074219 5.23304688 10.88476562 5.234375 C9.66208984 5.23050781 8.43941406 5.22664062 7.1796875 5.22265625 C5.96087891 5.22652344 4.74207031 5.23039063 3.48632812 5.234375 C1.74319336 5.23244141 1.74319336 5.23244141 -0.03515625 5.23046875 C-1.10757568 5.22934082 -2.17999512 5.22821289 -3.28491211 5.22705078 C-5.8828125 5.09765625 -5.8828125 5.09765625 -7.8828125 4.09765625 C-7.8828125 3.10765625 -7.8828125 2.11765625 -7.8828125 1.09765625 C-5.16879956 -0.25935022 -3.03434934 -0.01472985 0 0 Z " fill="#939A9E" transform="translate(575.8828125,246.90234375)"/>
<path d="M0 0 C2.375 0.3125 2.375 0.3125 5 1 C5.66 1.99 6.32 2.98 7 4 C7.66 4 8.32 4 9 4 C9.66 2.68 10.32 1.36 11 0 C12.32 0 13.64 0 15 0 C14.37337943 6.64217805 14.37337943 6.64217805 12.5 8.4375 C9.95357346 11.09002765 10.29290137 14.42660334 10 18 C8.68 18 7.36 18 6 18 C5.938125 16.989375 5.87625 15.97875 5.8125 14.9375 C5.28539797 10.99222116 3.5848912 8.6744176 1.05859375 5.67578125 C0 4 0 4 0 0 Z " fill="#3F4E56" transform="translate(270,241)"/>
<path d="M0 0 C2.4609375 0.37109375 2.4609375 0.37109375 4.4609375 2.37109375 C4.65625 4.97265625 4.65625 4.97265625 4.5859375 7.99609375 C4.56789063 8.99898437 4.54984375 10.001875 4.53125 11.03515625 C4.50804687 11.80601562 4.48484375 12.576875 4.4609375 13.37109375 C1.04806014 11.66465507 0.61652425 7.837854 -0.5390625 4.37109375 C-2.8490625 5.03109375 -5.1590625 5.69109375 -7.5390625 6.37109375 C-7.8690625 7.69109375 -8.1990625 9.01109375 -8.5390625 10.37109375 C-9.1990625 10.37109375 -9.8590625 10.37109375 -10.5390625 10.37109375 C-10.8690625 11.03109375 -11.1990625 11.69109375 -11.5390625 12.37109375 C-12.1990625 12.04109375 -12.8590625 11.71109375 -13.5390625 11.37109375 C-13.22993396 8.04796199 -12.60791409 5.51505616 -11.1640625 2.49609375 C-7.50036503 -0.46975658 -4.59049693 -0.10460918 0 0 Z " fill="#6C787F" transform="translate(432.5390625,240.62890625)"/>
<path d="M0 0 C4.29 0 8.58 0 13 0 C12.67 1.32 12.34 2.64 12 4 C10.68 4 9.36 4 8 4 C8 8.95 8 13.9 8 19 C6.68 19 5.36 19 4 19 C4 14.05 4 9.1 4 4 C2.68 4 1.36 4 0 4 C0 2.68 0 1.36 0 0 Z " fill="#465357" transform="translate(407,241)"/>
<path d="M0 0 C8.3984375 -0.29296875 8.3984375 -0.29296875 11 0 C13.20914 3.31371 13.22481553 4.3446021 13.125 8.1875 C13.10695312 9.08855469 13.08890625 9.98960937 13.0703125 10.91796875 C13.03550781 11.94857422 13.03550781 11.94857422 13 13 C12.34 13 11.68 13 11 13 C11 12.01 11 11.02 11 10 C8.69 10.33 6.38 10.66 4 11 C4 9.68 4 8.36 4 7 C3.34 7 2.68 7 2 7 C1.34 8.32 0.68 9.64 0 11 C0 7.37 0 3.74 0 0 Z M4 4 C4 4.99 4 5.98 4 7 C5.32 7 6.64 7 8 7 C8 6.01 8 5.02 8 4 C6.68 4 5.36 4 4 4 Z " fill="#324049" transform="translate(222,241)"/>
<path d="M0 0 C0.99 0 1.98 0 3 0 C3 11.88 3 23.76 3 36 C2.01 36 1.02 36 0 36 C-0.16797178 31.51618182 -0.32849276 27.03217687 -0.48217773 22.54785156 C-0.53547812 21.02303937 -0.59079772 19.49829635 -0.64819336 17.97363281 C-0.73043951 15.77944855 -0.80537075 13.58511635 -0.87890625 11.390625 C-0.91945885 10.37165131 -0.91945885 10.37165131 -0.96083069 9.33209229 C-1.06392959 6.04687715 -1.03583771 3.13890215 0 0 Z " fill="#64767E" transform="translate(449,186)"/>
<path d="M0 0 C1.32 0 2.64 0 4 0 C4 4.62 4 9.24 4 14 C5.98 14 7.96 14 10 14 C10.33 14.99 10.66 15.98 11 17 C10.67 17.66 10.34 18.32 10 19 C6.7 19 3.4 19 0 19 C0 12.73 0 6.46 0 0 Z " fill="#556063" transform="translate(359,241)"/>
<path d="M0 0 C0.66 0.33 1.32 0.66 2 1 C1.01 2.485 1.01 2.485 0 4 C0.66 3.67 1.32 3.34 2 3 C3.71233688 3.0870204 5.42175406 3.24097162 7.125 3.4375 C8.03507812 3.53933594 8.94515625 3.64117187 9.8828125 3.74609375 C10.58148438 3.82988281 11.28015625 3.91367188 12 4 C12 4.33 12 4.66 12 5 C10.7625 5.268125 9.525 5.53625 8.25 5.8125 C4.89716221 6.63881995 2.58904064 7.62671274 0 10 C0 9.01 0 8.02 0 7 C-1.32 7.33 -2.64 7.66 -4 8 C-4 8.66 -4 9.32 -4 10 C-4.66 10 -5.32 10 -6 10 C-6.0825 10.7425 -6.165 11.485 -6.25 12.25 C-7.14809799 15.54302595 -8.38416074 16.85976788 -11 19 C-11.66 19 -12.32 19 -13 19 C-13 21.97 -13 24.94 -13 28 C-15 26 -15 26 -15.0625 22.4375 C-14.3501859 17.65109671 -11.83317657 14.73388019 -8.77734375 11.109375 C-7.2795807 9.33181006 -5.994534 7.58138808 -4.75 5.625 C-3.29713396 3.44570094 -1.93541491 1.74187342 0 0 Z " fill="#E6D38F" transform="translate(323,117)"/>
<path d="M0 0 C5.77410842 1.58787981 11.8802216 3.89018183 15.36328125 9 C19.1181938 16.42789974 20.83765542 25.01693584 18.328125 33.1875 C17.5 34.8125 17.5 34.8125 16 37 C14.875 33.25 14.875 33.25 16 31 C16.09720427 29.06449136 16.12977914 27.12544208 16.125 25.1875 C16.12757813 24.14980469 16.13015625 23.11210937 16.1328125 22.04296875 C15.88492129 16.36334379 15.03574727 13.14195115 11 9 C8.72356474 7.4954033 6.42866016 6.26103509 4 5 C4 4.01 4 3.02 4 2 C2.02 2 0.04 2 -2 2 C-1.34 1.34 -0.68 0.68 0 0 Z " fill="#DDCA8A" transform="translate(412,179)"/>
<path d="M0 0 C2.92879371 0.62759865 5.36095629 1.58622659 8 3 C8 3.66 8 4.32 8 5 C8.78375 5.12375 9.5675 5.2475 10.375 5.375 C13.24424626 5.86969763 16.08589046 6.41661728 18.9375 7 C22.94839762 7.81310179 26.94250549 8.47076159 31 9 C31 8.34 31 7.68 31 7 C32.65 7 34.3 7 36 7 C36 6.34 36 5.68 36 5 C38.31 4.34 40.62 3.68 43 3 C38.4223184 8.31011066 33.37457151 10.00066343 26.625 10.8125 C17.77691695 11.38061462 10.22102042 9.24901484 3 4 C1.2421875 1.8359375 1.2421875 1.8359375 0 0 Z " fill="#D9C37F" transform="translate(380,218)"/>
<path d="M0 0 C0.99 0 1.98 0 3 0 C3 1.98 3 3.96 3 6 C4.65 6.33 6.3 6.66 8 7 C8.33 8.65 8.66 10.3 9 12 C6.03 11.505 6.03 11.505 3 11 C2.67 12.65 2.34 14.3 2 16 C1.01 16 0.02 16 -1 16 C-1.02685095 13.52076199 -1.04676547 11.0418116 -1.0625 8.5625 C-1.07506836 7.50192383 -1.07506836 7.50192383 -1.08789062 6.41992188 C-1.09653588 4.61306441 -1.05220011 2.80612397 -1 1 C-0.67 0.67 -0.34 0.34 0 0 Z " fill="#34444D" transform="translate(442,243)"/>
<path d="M0 0 C0.66 0.66 1.32 1.32 2 2 C2.99 1.01 3.98 0.02 5 -1 C5.75 0.6875 5.75 0.6875 6 3 C4.5625 5.75 4.5625 5.75 2 8 C-1.55704524 8.7714074 -4.79445615 8.71579166 -8 6.8125 C-9.30894168 4.44004321 -9.21620175 2.6664882 -9 0 C-5.47955362 -1.17348213 -3.57539179 -0.83679382 0 0 Z M-5 0 C-4.67 0.99 -4.34 1.98 -4 3 C-2.68 3 -1.36 3 0 3 C0 2.34 0 1.68 0 1 C-1.65 0.67 -3.3 0.34 -5 0 Z " fill="#515C5F" transform="translate(303,252)"/>
<path d="M0 0 C1.6028524 0.21871917 3.19918543 0.48453904 4.79296875 0.76171875 C4.79296875 2.74171875 4.79296875 4.72171875 4.79296875 6.76171875 C0.04296875 5.88671875 0.04296875 5.88671875 -2.20703125 4.76171875 C-4.01473826 4.53257279 -5.828703 4.35114064 -7.64453125 4.19921875 C-8.61261719 4.11542969 -9.58070313 4.03164062 -10.578125 3.9453125 C-12.45086359 3.81452689 -14.32973141 3.76171875 -16.20703125 3.76171875 C-12.20530861 -2.05896872 -6.27400474 -0.67737042 0 0 Z " fill="#E0C45D" transform="translate(337.20703125,117.23828125)"/>
<path d="M0 0 C1.875 0.125 1.875 0.125 4 1 C5.88698167 5.05701058 6.21117043 8.56542098 6 13 C5.01 13 4.02 13 3 13 C2.79375 12.360625 2.5875 11.72125 2.375 11.0625 C1.10461791 8.65074923 1.10461791 8.65074923 -2.125 8.25 C-3.07375 8.1675 -4.0225 8.085 -5 8 C-5 7.34 -5 6.68 -5 6 C-5.66 6 -6.32 6 -7 6 C-7 5.34 -7 4.68 -7 4 C-3.25 2.875 -3.25 2.875 -1 4 C-0.67 2.68 -0.34 1.36 0 0 Z " fill="#3C4B53" transform="translate(247,247)"/>
<path d="M0 0 C3.96 0 7.92 0 12 0 C11.67 1.32 11.34 2.64 11 4 C9.865625 4.12375 8.73125 4.2475 7.5625 4.375 C5.7990625 4.684375 5.7990625 4.684375 4 5 C3.67 5.66 3.34 6.32 3 7 C4.32 7 5.64 7 7 7 C7 8.32 7 9.64 7 11 C4.69 11 2.38 11 0 11 C0 7.37 0 3.74 0 0 Z " fill="#485256" transform="translate(457,241)"/>
<path d="M0 0 C2 2 2 2 2.1953125 3.9453125 C2.13020833 5.96354167 2.06510417 7.98177083 2 10 C0.02 10.99 0.02 10.99 -2 12 C-2 10.68 -2 9.36 -2 8 C-4.31 8.33 -6.62 8.66 -9 9 C-9 6.36 -9 3.72 -9 1 C-5.98675805 -0.50662097 -3.31713623 -0.17770373 0 0 Z M-8 4 C-8 5.32 -8 6.64 -8 8 C-6.35 7.67 -4.7 7.34 -3 7 C-3.33 6.01 -3.66 5.02 -4 4 C-5.32 4 -6.64 4 -8 4 Z " fill="#626D6F" transform="translate(340,241)"/>
<path d="M0 0 C1.98 0 3.96 0 6 0 C6.69670416 1.78810766 7.38211189 3.58062052 8.0625 5.375 C8.44535156 6.37273437 8.82820312 7.37046875 9.22265625 8.3984375 C10 11 10 11 9 13 C6.36 11.35 3.72 9.7 1 8 C1 8.66 1 9.32 1 10 C0.34 9.67 -0.32 9.34 -1 9 C-0.67 6.03 -0.34 3.06 0 0 Z " fill="#21363F" transform="translate(200,241)"/>
<path d="M0 0 C5.75 -0.125 5.75 -0.125 8 1 C9.44694583 5.34083748 9.14123313 9.46036374 9 14 C8.98324219 14.75667969 8.96648437 15.51335937 8.94921875 16.29296875 C8.71080178 19.92371863 8.19334252 21.77351305 5.8125 24.5625 C2.36652125 26.32377803 0.66626013 26.02314236 -3 25 C-2.4225 24.7525 -1.845 24.505 -1.25 24.25 C2.48597363 22.17445909 4.64391315 20.06826056 6 16 C6.14328384 14.17037564 6.22040343 12.33498763 6.25 10.5 C6.27578125 9.5409375 6.3015625 8.581875 6.328125 7.59375 C6.22099519 4.98563809 6.22099519 4.98563809 4.671875 3.28125 C3.16140712 2.12369517 1.58339989 1.05559992 0 0 Z " fill="#D9BC66" transform="translate(347,186)"/>
<path d="M0 0 C0.86625 0.4640625 0.86625 0.4640625 1.75 0.9375 C3.84294184 1.92583364 5.74535275 2.5168613 8 3 C8 2.34 8 1.68 8 1 C7.01 0.67 6.02 0.34 5 0 C6.32 0 7.64 0 9 0 C9 1.32 9 2.64 9 4 C10.32 3.67 11.64 3.34 13 3 C12.625 4.9375 12.625 4.9375 12 7 C8.81538141 8.5923093 5.46608511 8.38905037 2 8 C-0.0625 6.8125 -0.0625 6.8125 -1 5 C-0.6875 2.3125 -0.6875 2.3125 0 0 Z " fill="#6D787B" transform="translate(393,252)"/>
<path d="M0 0 C0.99 0.33 1.98 0.66 3 1 C2.34 1 1.68 1 1 1 C1.144375 1.721875 1.28875 2.44375 1.4375 3.1875 C1.80294084 5.01470421 2.13809869 6.84832054 2.4375 8.6875 C2.83093987 11.17757117 2.83093987 11.17757117 5 13 C4.34 13 3.68 13 3 13 C3.33 14.32 3.66 15.64 4 17 C2.1875 16.875 2.1875 16.875 0 16 C-3 10.96428571 -3 10.96428571 -3 8 C-3.66 7.67 -4.32 7.34 -5 7 C-5 6.01 -5 5.02 -5 4 C-4.01 3.67 -3.02 3.34 -2 3 C-1.34 2.01 -0.68 1.02 0 0 Z " fill="#315666" transform="translate(500,174)"/>
<path d="M0 0 C2.97 0.495 2.97 0.495 6 1 C5.34 1.391875 4.68 1.78375 4 2.1875 C1.7446498 3.83560055 1.7446498 3.83560055 1.6875 6.5 C1.93258508 9.12461546 1.93258508 9.12461546 3 12 C6.02282643 13.03547047 6.02282643 13.03547047 9.5625 13.6875 C10.76003906 13.93886719 11.95757812 14.19023437 13.19140625 14.44921875 C14.58166016 14.72185547 14.58166016 14.72185547 16 15 C16 15.33 16 15.66 16 16 C12.37 16 8.74 16 5 16 C5 15.34 5 14.68 5 14 C4.21625 14.04125 3.4325 14.0825 2.625 14.125 C0 14 0 14 -2 12 C-2.52941176 3.79411765 -2.52941176 3.79411765 0 0 Z " fill="#DBC069" transform="translate(396,163)"/>
<path d="M0 0 C-3.41110474 1.13703491 -4.55943684 0.73726353 -8 0 C-17.09912513 -0.76924971 -23.49873983 -0.33988012 -31 5 C-32.5159375 5.8971875 -32.5159375 5.8971875 -34.0625 6.8125 C-34.701875 7.204375 -35.34125 7.59625 -36 8 C-34.5304003 4.19390191 -32.61508531 2.8268074 -29.125 0.8125 C-28.26132812 0.30332031 -27.39765625 -0.20585937 -26.5078125 -0.73046875 C-18.12638058 -4.97340547 -8.28838777 -3.82540974 0 0 Z " fill="#ECDC98" transform="translate(419,149)"/>
<path d="M0 0 C0.33 0 0.66 0 1 0 C1 11.22 1 22.44 1 34 C0.01 34.495 0.01 34.495 -1 35 C-1.19215767 30.33732843 -1.37089491 25.6744108 -1.53710938 21.01074219 C-1.5955764 19.42368721 -1.65773514 17.83676381 -1.72363281 16.25 C-1.8176169 13.97159787 -1.89839523 11.6930552 -1.9765625 9.4140625 C-2.00875885 8.70255035 -2.0409552 7.99103821 -2.0741272 7.25796509 C-2.1276313 5.50595267 -2.07274185 3.75131916 -2 2 C-1.34 1.34 -0.68 0.68 0 0 Z " fill="#E3D4CD" transform="translate(290,186)"/>
<path d="M0 0 C0.99 0.66 1.98 1.32 3 2 C3.4375 5.4375 3.4375 5.4375 3 9 C0.81845442 11.19659072 -0.48642349 11.94163903 -3.578125 12.29296875 C-4.45984375 12.25816406 -5.3415625 12.22335937 -6.25 12.1875 C-7.14203125 12.16042969 -8.0340625 12.13335937 -8.953125 12.10546875 C-9.62859375 12.07066406 -10.3040625 12.03585937 -11 12 C-8 10 -8 10 -5 9 C-5.99 8.67 -6.98 8.34 -8 8 C-8 6.35 -8 4.7 -8 3 C-5.69 2.34 -3.38 1.68 -1 1 C-1.33 3.97 -1.66 6.94 -2 10 C-1.34 10 -0.68 10 0 10 C0 8.68 0 7.36 0 6 C0.66 6 1.32 6 2 6 C1.34 4.02 0.68 2.04 0 0 Z M-7 4 C-7 4.99 -7 5.98 -7 7 C-5.35 7 -3.7 7 -2 7 C-2.33 6.01 -2.66 5.02 -3 4 C-4.32 4 -5.64 4 -7 4 Z " fill="#758186" transform="translate(267,248)"/>
<path d="M0 0 C1.79133978 -0.05391993 3.58313899 -0.09275571 5.375 -0.125 C6.37273437 -0.14820313 7.37046875 -0.17140625 8.3984375 -0.1953125 C11 0 11 0 13 2 C13.125 4.625 13.125 4.625 13 7 C12.67 5.68 12.34 4.36 12 3 C11.01 3.495 11.01 3.495 10 4 C9.67 4.99 9.34 5.98 9 7 C8.34 6.67 7.68 6.34 7 6 C7.33 5.34 7.66 4.68 8 4 C6.68 4 5.36 4 4 4 C3.67 4.99 3.34 5.98 3 7 C3 5.68 3 4.36 3 3 C2.01 3 1.02 3 0 3 C0 6.3 0 9.6 0 13 C-0.33 13 -0.66 13 -1 13 C-1.02696365 11.20841511 -1.04637917 9.41671527 -1.0625 7.625 C-1.07410156 6.62726563 -1.08570313 5.62953125 -1.09765625 4.6015625 C-1 2 -1 2 0 0 Z " fill="#4D5B5A" transform="translate(256,241)"/>
<path d="M0 0 C0.6875 1.625 0.6875 1.625 1 4 C0.525625 4.845625 0.05125 5.69125 -0.4375 6.5625 C-4.22160966 14.88754125 -1.70855389 23.66474785 1 32 C0.01 32.495 0.01 32.495 -1 33 C-5.2946327 23.29039564 -5.91603883 14.37593558 -2.88671875 4.1796875 C-2 2 -2 2 0 0 Z " fill="#DAC486" transform="translate(319,183)"/>
<path d="M0 0 C2.75 1.375 2.75 1.375 5 3 C5.33 3.99 5.66 4.98 6 6 C4.68 5.67 3.36 5.34 2 5 C2 4.34 2 3.68 2 3 C-1.63 3 -5.26 3 -9 3 C-10.98384711 6.96769422 -10.32630565 11.85529486 -9 16 C-12.04569711 13.62054913 -12.92776783 12.44141882 -13.5625 8.5625 C-12.86140786 4.12224979 -11.47874717 2.75063729 -8 0 C-4.60651463 -1.13116179 -3.38373646 -0.96678184 0 0 Z " fill="#E0CD93" transform="translate(389,202)"/>
<path d="M0 0 C0.75 1.6875 0.75 1.6875 1 4 C-0.51216616 6.82709325 -1.7655407 8.54395771 -4.83984375 9.6796875 C-8.7190145 10.40935877 -11.17191814 10.27070597 -14.5 8.0625 C-15.325 7.381875 -16.15 6.70125 -17 6 C-14.69403325 5.2587964 -13.36537641 4.89723788 -11 5.5625 C-8.35458578 6.14118436 -7.32195446 5.27332987 -5 4 C-4.01 4 -3.02 4 -2 4 C-1.34 2.68 -0.68 1.36 0 0 Z " fill="#ACC0BF" transform="translate(270,156)"/>
<path d="M0 0 C5.8699985 0.6851151 10.40985026 2.08157949 15 6 C16.375 8.75 16.375 8.75 17 11 C14 11 14 11 11.625 8.6875 C10.75875 7.800625 9.8925 6.91375 9 6 C2.81018811 1.43908597 -4.59359185 1.64006241 -12 2 C-14.89086974 2.42450628 -14.89086974 2.42450628 -17 3 C-13.16636347 -2.22643254 -5.77034572 -0.35828944 0 0 Z " fill="#DBC261" transform="translate(411,148)"/>
<path d="M0 0 C3.96 0 7.92 0 12 0 C12.33 1.32 12.66 2.64 13 4 C12.01 4.33 11.02 4.66 10 5 C10 4.34 10 3.68 10 3 C7.36 3 4.72 3 2 3 C1.67 7.95 1.34 12.9 1 18 C1.99 18 2.98 18 4 18 C4.33 17.34 4.66 16.68 5 16 C5 16.99 5 17.98 5 19 C3.35 19 1.7 19 0 19 C0 12.73 0 6.46 0 0 Z " fill="#6B777A" transform="translate(440,241)"/>
<path d="M0 0 C5.67276511 -0.29341888 8.99067246 -0.00559652 14 3 C14 3.66 14 4.32 14 5 C12.35 5 10.7 5 9 5 C9 5.99 9 6.98 9 8 C7.9275 7.938125 6.855 7.87625 5.75 7.8125 C1.67308162 8.01634592 1.05796662 8.65555892 -2 11 C-4.625 10.875 -4.625 10.875 -7 10 C-7.66 9.01 -8.32 8.02 -9 7 C-6.69 7.66 -4.38 8.32 -2 9 C-2 8.34 -2 7.68 -2 7 C1.47325181 5.8422494 4.36067448 5.93133348 8 6 C7.67 4.68 7.34 3.36 7 2 C4.69 1.67 2.38 1.34 0 1 C0 0.67 0 0.34 0 0 Z " fill="#E8D695" transform="translate(344,115)"/>
<path d="M0 0 C0.33 1.32 0.66 2.64 1 4 C3.97 4.33 6.94 4.66 10 5 C9.67 7.31 9.34 9.62 9 12 C8.67 11.54625 8.34 11.0925 8 10.625 C4.9622157 8.15680026 1.80812939 7.81156856 -2 7 C-2.125 4.625 -2.125 4.625 -2 2 C-1.34 1.34 -0.68 0.68 0 0 Z " fill="#2E3F48" transform="translate(297,244)"/>
<path d="M0 0 C8.25 0 16.5 0 25 0 C25 0.99 25 1.98 25 3 C19.72 3 14.44 3 9 3 C9 2.67 9 2.34 9 2 C6.03 1.67 3.06 1.34 0 1 C0 0.67 0 0.34 0 0 Z " fill="#27353C" transform="translate(572,248)"/>
<path d="M0 0 C0.66 0.33 1.32 0.66 2 1 C1.53851563 1.40089844 1.07703125 1.80179688 0.6015625 2.21484375 C-4.32632783 7.70763858 -4.56556372 16.95913618 -5 24 C-7.34179133 21.65820867 -7.29546326 21.18019135 -7.3125 18 C-7.18650539 12.80902226 -6.27220892 7.6970289 -4 3 C-1.890625 1.2109375 -1.890625 1.2109375 0 0 Z " fill="#D9C474" transform="translate(386,154)"/>
<path d="M0 0 C0.66 0.66 1.32 1.32 2 2 C4.43252661 2.46162427 4.43252661 2.46162427 7.125 2.625 C8.03507812 2.69976562 8.94515625 2.77453125 9.8828125 2.8515625 C10.58148438 2.90054688 11.28015625 2.94953125 12 3 C12 4.32 12 5.64 12 7 C8.04 7 4.08 7 0 7 C0 4.69 0 2.38 0 0 Z " fill="#515D62" transform="translate(457,253)"/>
<path d="M0 0 C-0.99 0.33 -1.98 0.66 -3 1 C-3 1.66 -3 2.32 -3 3 C-3.99 3.495 -3.99 3.495 -5 4 C-5.65213292 6.02463255 -5.65213292 6.02463255 -6 8 C-6.66 8 -7.32 8 -8 8 C-8.33 8.66 -8.66 9.32 -9 10 C-9.66 9.67 -10.32 9.34 -11 9 C-10.5020163 5.26512223 -10.12508244 3.18762365 -8 0 C-4.71023192 -1.09658936 -3.28696233 -0.79953138 0 0 Z " fill="#253339" transform="translate(430,243)"/>
<path d="M0 0 C0.66 0.33 1.32 0.66 2 1 C2.36547507 7.45672625 2.36547507 7.45672625 0.84375 9.71875 C-1.73239963 11.50895567 -3.5854308 11.2969848 -6.6875 11.1875 C-7.68136719 11.16042969 -8.67523438 11.13335937 -9.69921875 11.10546875 C-10.45847656 11.07066406 -11.21773437 11.03585937 -12 11 C-12 10.67 -12 10.34 -12 10 C-11.36191406 9.93941406 -10.72382813 9.87882812 -10.06640625 9.81640625 C-9.24011719 9.73261719 -8.41382813 9.64882813 -7.5625 9.5625 C-6.73878906 9.48128906 -5.91507813 9.40007812 -5.06640625 9.31640625 C-3.01337975 9.21069185 -3.01337975 9.21069185 -2 8 C-4.97 7.505 -4.97 7.505 -8 7 C-8 6.67 -8 6.34 -8 6 C-6.35 6 -4.7 6 -3 6 C-3 5.34 -3 4.68 -3 4 C-3.99 3.67 -4.98 3.34 -6 3 C-4.35 2.67 -2.7 2.34 -1 2 C-1 2.99 -1 3.98 -1 5 C-0.34 5 0.32 5 1 5 C0.67 3.35 0.34 1.7 0 0 Z " fill="#7E898E" transform="translate(234,249)"/>
<path d="M0 0 C1.32 0 2.64 0 4 0 C4 4.29 4 8.58 4 13 C2.68 12.67 1.36 12.34 0 12 C0 8.04 0 4.08 0 0 Z " fill="#414C52" transform="translate(310,241)"/>
<path d="M0 0 C-3.65190991 4.04318597 -5.74915571 4.87916816 -11.12890625 5.16796875 C-12.26199219 5.17441406 -13.39507812 5.18085938 -14.5625 5.1875 C-15.69816406 5.20167969 -16.83382813 5.21585938 -18.00390625 5.23046875 C-21 5 -21 5 -24 3 C-22.31970703 2.92652344 -22.31970703 2.92652344 -20.60546875 2.8515625 C-19.13278797 2.77652144 -17.66013293 2.70097418 -16.1875 2.625 C-15.44951172 2.5940625 -14.71152344 2.563125 -13.95117188 2.53125 C-8.6695423 2.24446468 -5.21652271 -0.2819742 0 0 Z " fill="#DCC780" transform="translate(355,223)"/>
<path d="M0 0 C3.26085071 3.26085071 2.40457456 7.48691057 2.55859375 11.93359375 C2.74201673 14.95689244 2.74201673 14.95689244 4.34765625 16.78515625 C5.86637062 17.9017524 7.43157299 18.95438199 9 20 C6.69 19.67 4.38 19.34 2 19 C-0.85888741 12.31311081 -1.23852969 7.14765932 0 0 Z " fill="#677C85" transform="translate(560,191)"/>
<path d="M0 0 C0.99 0.33 1.98 0.66 3 1 C1.1875 4 1.1875 4 -1 7 C-1.99 7 -2.98 7 -4 7 C-4 7.66 -4 8.32 -4 9 C-6.31 9 -8.62 9 -11 9 C-11.33 8.01 -11.66 7.02 -12 6 C-10.948125 5.7525 -9.89625 5.505 -8.8125 5.25 C-5.16144011 4.23950464 -2.94303011 2.37077426 0 0 Z " fill="#E1C060" transform="translate(349,148)"/>
<path d="M0 0 C2.96508789 -0.35644531 2.96508789 -0.35644531 6.72265625 -0.328125 C7.38333603 -0.32625183 8.04401581 -0.32437866 8.72471619 -0.32244873 C10.12097217 -0.3157261 11.51720925 -0.30180717 12.91333008 -0.28125 C15.05763114 -0.2500708 17.20119779 -0.24027799 19.34570312 -0.234375 C29.83662324 -0.16337676 29.83662324 -0.16337676 31 1 C31.04080783 2.99958364 31.04254356 5.00045254 31 7 C29 4 29 4 29 2 C19.76 2.33 10.52 2.66 1 3 C0.34 4.32 -0.32 5.64 -1 7 C-1.625 5.1875 -1.625 5.1875 -2 3 C-1.34 2.01 -0.68 1.02 0 0 Z " fill="#596976" transform="translate(104,209)"/>
<path d="M0 0 C0.99 0.495 0.99 0.495 2 1 C1.67 4.96 1.34 8.92 1 13 C5.455 12.505 5.455 12.505 10 12 C10 12.33 10 12.66 10 13 C8.35 13 6.7 13 5 13 C5 14.65 5 16.3 5 18 C3.0625 18.5625 3.0625 18.5625 1 19 C0 18 0 18 -0.11352539 16.23413086 C-0.10828857 15.48526611 -0.10305176 14.73640137 -0.09765625 13.96484375 C-0.09443359 13.15595703 -0.09121094 12.34707031 -0.08789062 11.51367188 C-0.07951172 10.66353516 -0.07113281 9.81339844 -0.0625 8.9375 C-0.05798828 8.08349609 -0.05347656 7.22949219 -0.04882812 6.34960938 C-0.03700373 4.23304337 -0.01906769 2.11651315 0 0 Z " fill="#939898" transform="translate(343,241)"/>
<path d="M0 0 C0.66 0 1.32 0 2 0 C2 0.66 2 1.32 2 2 C2.74765625 1.97679687 3.4953125 1.95359375 4.265625 1.9296875 C5.25046875 1.91164062 6.2353125 1.89359375 7.25 1.875 C8.22453125 1.85179687 9.1990625 1.82859375 10.203125 1.8046875 C13.0196498 2.00137219 14.60949036 2.55431084 17 4 C11.07794424 5.89505784 5.71218387 5.22914492 0 3 C0 6.63 0 10.26 0 14 C-0.33 14 -0.66 14 -1 14 C-1.02694851 12.04174127 -1.04637218 10.08337774 -1.0625 8.125 C-1.07410156 7.03445312 -1.08570313 5.94390625 -1.09765625 4.8203125 C-1 2 -1 2 0 0 Z " fill="#7B8F97" transform="translate(562,222)"/>
<path d="M0 0 C1.65 0 3.3 0 5 0 C5 0.66 5 1.32 5 2 C6.98 1.34 8.96 0.68 11 0 C10 3 10 3 8 4 C7.67 4.99 7.34 5.98 7 7 C2.25 6.25 2.25 6.25 0 4 C0 2.68 0 1.36 0 0 Z " fill="#6A757B" transform="translate(310,253)"/>
<path d="M0 0 C14.06596021 -0.56347318 14.06596021 -0.56347318 19 3 C19.33 3.66 19.66 4.32 20 5 C16.87709365 4.51421457 14.00419641 4.0013988 11 3 C10.01 3.495 10.01 3.495 9 4 C6.8359375 3.66015625 6.8359375 3.66015625 4.375 3.0625 C3.14910156 2.77052734 3.14910156 2.77052734 1.8984375 2.47265625 C0.95871094 2.23869141 0.95871094 2.23869141 0 2 C0 1.34 0 0.68 0 0 Z " fill="#526671" transform="translate(456,170)"/>
<path d="M0 0 C-2 1 -2 1 -4 0.4375 C-4.99 0.2209375 -4.99 0.2209375 -6 0 C-6.66 0.66 -7.32 1.32 -8 2 C-8 1.34 -8 0.68 -8 0 C-9.45823212 -0.0270043 -10.91660675 -0.04639787 -12.375 -0.0625 C-13.59316406 -0.07990234 -13.59316406 -0.07990234 -14.8359375 -0.09765625 C-17.04937142 -0.14466334 -17.04937142 -0.14466334 -19 1 C-19.66 0.34 -20.32 -0.32 -21 -1 C-13.12059438 -4.15176225 -7.36179078 -3.68089539 0 0 Z " fill="#627885" transform="translate(214,173)"/>
<path d="M0 0 C1.37478516 0.01740234 1.37478516 0.01740234 2.77734375 0.03515625 C3.69644531 0.04417969 4.61554688 0.05320313 5.5625 0.0625 C6.27277344 0.07410156 6.98304688 0.08570313 7.71484375 0.09765625 C7.71484375 0.42765625 7.71484375 0.75765625 7.71484375 1.09765625 C5.73484375 1.42765625 3.75484375 1.75765625 1.71484375 2.09765625 C3.36484375 2.42765625 5.01484375 2.75765625 6.71484375 3.09765625 C6.38484375 4.41765625 6.05484375 5.73765625 5.71484375 7.09765625 C5.38484375 6.10765625 5.05484375 5.11765625 4.71484375 4.09765625 C3.39484375 4.09765625 2.07484375 4.09765625 0.71484375 4.09765625 C0.71484375 5.41765625 0.71484375 6.73765625 0.71484375 8.09765625 C1.70484375 8.42765625 2.69484375 8.75765625 3.71484375 9.09765625 C2.39484375 9.09765625 1.07484375 9.09765625 -0.28515625 9.09765625 C-0.61515625 7.77765625 -0.94515625 6.45765625 -1.28515625 5.09765625 C-2.27515625 5.59265625 -2.27515625 5.59265625 -3.28515625 6.09765625 C-3.32787725 4.4315372 -3.32579457 2.7638274 -3.28515625 1.09765625 C-2.28515625 0.09765625 -2.28515625 0.09765625 0 0 Z " fill="#576870" transform="translate(347.28515625,240.90234375)"/>
<path d="M0 0 C1.67728533 5.03185599 -1.12647977 9.17426609 -3 14 C1.62 14 6.24 14 11 14 C11 14.33 11 14.66 11 15 C6.05 15 1.1 15 -4 15 C-4.16682272 10.07872966 -4.24828052 6.49656104 -2 2 C-1.34 2 -0.68 2 0 2 C0 1.34 0 0.68 0 0 Z " fill="#697D85" transform="translate(115,181)"/>
<path d="M0 0 C1.32 0.33 2.64 0.66 4 1 C4 2.32 4 3.64 4 5 C4.556875 5.04125 5.11375 5.0825 5.6875 5.125 C9.24030274 6.46930374 10.70958953 9.00974189 13 12 C7.28858607 10.97194549 4.7519005 9.20921653 1.06640625 4.75390625 C0 3 0 3 0 0 Z " fill="#DAC77C" transform="translate(381,180)"/>
<path d="M0 0 C2.375 0.1875 2.375 0.1875 5 1 C6.3125 3.5625 6.3125 3.5625 7 6 C8.32 6 9.64 6 11 6 C11 6.66 11 7.32 11 8 C7.66666667 7.33333333 4.33333333 6.66666667 1 6 C0.67 4.02 0.34 2.04 0 0 Z " fill="#263641" transform="translate(270,241)"/>
<path d="M0 0 C0.66 0.33 1.32 0.66 2 1 C-4.87037497 5.78733575 -11.36160052 8.82270471 -20 8 C-20.66 7.34 -21.32 6.68 -22 6 C-18.04 6 -14.08 6 -10 6 C-10 5.34 -10 4.68 -10 4 C-8.35 4 -6.7 4 -5 4 C-5 3.34 -5 2.68 -5 2 C-2.625 0.9375 -2.625 0.9375 0 0 Z " fill="#DFD09C" transform="translate(421,221)"/>
<path d="M0 0 C1.32 0.33 2.64 0.66 4 1 C4.33 2.32 4.66 3.64 5 5 C3.4375 6.5625 3.4375 6.5625 1 8 C-2.625 7.875 -2.625 7.875 -6 7 C-6.66 6.01 -7.32 5.02 -8 4 C-4.7 4.33 -1.4 4.66 2 5 C1.34 3.35 0.68 1.7 0 0 Z " fill="#6A7F89" transform="translate(241,220)"/>
<path d="M0 0 C2 2 2 2 2.375 5.3125 C1.94805086 9.51083317 0.88994071 11.01974864 -2 14 C-2.66 13.67 -3.32 13.34 -4 13 C-3.67 12.01 -3.34 11.02 -3 10 C-3.66 9.67 -4.32 9.34 -5 9 C-4.34 7.35 -3.68 5.7 -3 4 C-2.34 5.32 -1.68 6.64 -1 8 C-0.67 5.36 -0.34 2.72 0 0 Z " fill="#757F82" transform="translate(437,245)"/>
<path d="M0 0 C0.66 0 1.32 0 2 0 C3.34622701 6.24159797 3.34622701 6.24159797 1.6875 9.875 C0 12 0 12 -2 13 C-4.3329866 13.04022391 -6.66706666 13.04320247 -9 13 C-9 12.67 -9 12.34 -9 12 C-7.02 12 -5.04 12 -3 12 C-0.60926555 8.17482487 -0.44033448 4.40334476 0 0 Z " fill="#DFCB86" transform="translate(427,160)"/>
<path d="M0 0 C0.33 2.97 0.66 5.94 1 9 C0.34 9 -0.32 9 -1 9 C-1 8.01 -1 7.02 -1 6 C-3.31 6.33 -5.62 6.66 -8 7 C-8 5.68 -8 4.36 -8 3 C-6.35 3 -4.7 3 -3 3 C-3 2.34 -3 1.68 -3 1 C-1 0 -1 0 0 0 Z " fill="#21333D" transform="translate(234,245)"/>
<path d="M0 0 C4.29 0 8.58 0 13 0 C12.34 1.32 11.68 2.64 11 4 C9.741875 4.04125 8.48375 4.0825 7.1875 4.125 C6.47980469 4.14820313 5.77210938 4.17140625 5.04296875 4.1953125 C3 4 3 4 0 2 C0 1.34 0 0.68 0 0 Z " fill="#DEC77F" transform="translate(355,224)"/>
<path d="M0 0 C1.231394 2.46278801 1.07159196 4.2795055 1 7 C3.475 7.99 3.475 7.99 6 9 C3.35261084 10.4606285 2.10551666 11 -1 11 C-1.99 11.495 -1.99 11.495 -3 12 C-3.66 10.02 -4.32 8.04 -5 6 C-3.68 5.67 -2.36 5.34 -1 5 C-0.67 3.35 -0.34 1.7 0 0 Z " fill="#768385" transform="translate(425,246)"/>
<path d="M0 0 C2 3 2 3 2 6 C2.66 6 3.32 6 4 6 C4 10.29 4 14.58 4 19 C3.34 19 2.68 19 2 19 C1.67 19.99 1.34 20.98 1 22 C1.01740234 20.49759766 1.01740234 20.49759766 1.03515625 18.96484375 C1.04454398 17.62239772 1.05364312 16.27994964 1.0625 14.9375 C1.07410156 13.62652344 1.08570313 12.31554687 1.09765625 10.96484375 C1.00452335 7.1836481 0.61448726 3.72079293 0 0 Z " fill="#5B717A" transform="translate(537,186)"/>
<path d="M0 0 C0.98484375 0.11085938 1.9696875 0.22171875 2.984375 0.3359375 C3.73203125 0.43132812 4.4796875 0.52671875 5.25 0.625 C5.25 0.955 5.25 1.285 5.25 1.625 C3.39375 2.0271875 3.39375 2.0271875 1.5 2.4375 C-1.85283779 3.26381995 -4.16095936 4.25171274 -6.75 6.625 C-6.75 5.635 -6.75 4.645 -6.75 3.625 C-8.07 3.955 -9.39 4.285 -10.75 4.625 C-9.75 1.625 -9.75 1.625 -8.046875 0.4140625 C-5.14300475 -0.58352558 -3.03810243 -0.36167886 0 0 Z " fill="#E2CF7C" transform="translate(329.75,120.375)"/>
<path d="M0 0 C1.98 0 3.96 0 6 0 C6.33 1.32 6.66 2.64 7 4 C8.32 4 9.64 4 11 4 C10.6875 5.9375 10.6875 5.9375 10 8 C9.01 8.33 8.02 8.66 7 9 C7 7.68 7 6.36 7 5 C4.69 5.33 2.38 5.66 0 6 C0 4.02 0 2.04 0 0 Z M1 1 C1 2.32 1 3.64 1 5 C2.65 4.67 4.3 4.34 6 4 C5.67 3.01 5.34 2.02 5 1 C3.68 1 2.36 1 1 1 Z " fill="#7C8589" transform="translate(331,244)"/>
<path d="M0 0 C3.3 0 6.6 0 10 0 C10 1.32 10 2.64 10 4 C7.69 3.34 5.38 2.68 3 2 C3 2.99 3 3.98 3 5 C1.68 5.33 0.36 5.66 -1 6 C-0.67 4.02 -0.34 2.04 0 0 Z " fill="#283D40" transform="translate(393,242)"/>
<path d="M0 0 C0.99 1.32 1.98 2.64 3 4 C3.33 3.34 3.66 2.68 4 2 C4 2.99 4 3.98 4 5 C3.01 5.33 2.02 5.66 1 6 C0.34 5.67 -0.32 5.34 -1 5 C-0.67 7.64 -0.34 10.28 0 13 C-1.32 12.67 -2.64 12.34 -4 12 C-3.33501617 7.61110675 -1.81242323 4.0188515 0 0 Z " fill="#5F6B6C" transform="translate(198,247)"/>
<path d="M0 0 C1.485 0.99 1.485 0.99 3 2 C3 2.99 3 3.98 3 5 C4.32 5 5.64 5 7 5 C7 6.32 7 7.64 7 9 C4.69 9 2.38 9 0 9 C0 6.03 0 3.06 0 0 Z " fill="#1F3039" transform="translate(457,243)"/>
<path d="M0 0 C1.78984878 5.36954634 -0.25184793 10.7555438 -2 16 C-2.66 16.33 -3.32 16.66 -4 17 C-4.33 17.99 -4.66 18.98 -5 20 C-5.66 19.67 -6.32 19.34 -7 19 C-6.20953336 16.77040136 -5.41766606 14.54131666 -4.625 12.3125 C-4.18414062 11.07113281 -3.74328125 9.82976562 -3.2890625 8.55078125 C-2.24496091 5.67475597 -1.15850745 2.8313056 0 0 Z " fill="#6B828C" transform="translate(105,165)"/>
<path d="M0 0 C3.47678093 1.15892698 3.66265531 1.69306249 5.375 4.75 C6.97733332 7.46763523 8.51934504 9.70527264 10.8125 11.875 C11.534375 12.57625 12.25625 13.2775 13 14 C13 14.66 13 15.32 13 16 C11 15 9 14 7 13 C6.67 12.01 6.34 11.02 6 10 C5.54625 9.54625 5.0925 9.0925 4.625 8.625 C2.61634983 6.61634983 1.34333353 4.49476227 0 2 C0 1.34 0 0.68 0 0 Z " fill="#E6D69A" transform="translate(358,120)"/>
<path d="M0 0 C0.33 0 0.66 0 1 0 C1.33452052 7.43378943 1.13902852 13.19877155 -2 20 C-2.66 19.01 -3.32 18.02 -4 17 C-3.39421747 14.98072489 -2.70905938 12.98536627 -2 11 C-1.24547646 7.34810609 -0.61513299 3.67771003 0 0 Z " fill="#617984" transform="translate(597,191)"/>
<path d="M0 0 C4.45046302 0.59910079 6.03333782 2.37401221 9.25 5.4375 C8.92 6.0975 8.59 6.7575 8.25 7.4375 C7.26 7.1075 6.27 6.7775 5.25 6.4375 C5.25 5.7775 5.25 5.1175 5.25 4.4375 C1.95 3.7775 -1.35 3.1175 -4.75 2.4375 C-2.75 0.4375 -2.75 0.4375 0 0 Z " fill="#6A7C84" transform="translate(118.75,147.5625)"/>
<path d="M0 0 C1.485 0.99 1.485 0.99 3 2 C3.43237305 4.33837891 3.43237305 4.33837891 3.51171875 7.2265625 C3.54716797 8.2578125 3.58261719 9.2890625 3.61914062 10.3515625 C3.64169922 11.43179688 3.66425781 12.51203125 3.6875 13.625 C3.72166016 14.71296875 3.75582031 15.8009375 3.79101562 16.921875 C3.87368334 19.61448063 3.94277087 22.30675291 4 25 C3.34 25 2.68 25 2 25 C0.50304497 20.5091349 0.99644827 15.93435761 1.12695312 11.24804688 C1.23645988 5.84926958 1.23645988 5.84926958 -1 1 C-0.67 0.67 -0.34 0.34 0 0 Z " fill="#304D58" transform="translate(447,146)"/>
<path d="M0 0 C4.33333333 0 8.66666667 0 13 0 C12.67 2.31 12.34 4.62 12 7 C10.35 7.33 8.7 7.66 7 8 C7.50603992 5.83125748 7.99983813 4.00032373 9 2 C6.03 1.67 3.06 1.34 0 1 C0 0.67 0 0.34 0 0 Z " fill="#7C8386" transform="translate(394,241)"/>
<path d="M0 0 C2.375 -0.1875 2.375 -0.1875 5 0 C7 3 7 3 6.625 5.1875 C6.41875 5.785625 6.2125 6.38375 6 7 C5.67 6.01 5.34 5.02 5 4 C4.01 4.495 4.01 4.495 3 5 C3 5.99 3 6.98 3 8 C0.37613513 4.93882432 0 4.26826873 0 0 Z " fill="#6A7274" transform="translate(368,241)"/>
<path d="M0 0 C0.66 0 1.32 0 2 0 C2 0.99 2 1.98 2 3 C4.64 3 7.28 3 10 3 C10.33 2.01 10.66 1.02 11 0 C11.66 0.33 12.32 0.66 13 1 C12.4375 2.9375 12.4375 2.9375 11 5 C7.625 6 7.625 6 4 6 C1.5625 4.1875 1.5625 4.1875 0 2 C0 1.34 0 0.68 0 0 Z " fill="#617680" transform="translate(468,222)"/>
<path d="M0 0 C2.13749925 3.20624887 2.29574999 4.22458103 2.3125 7.9375 C2.33763672 9.21947266 2.33763672 9.21947266 2.36328125 10.52734375 C1.93504169 13.4421356 0.92290461 14.81326679 -1 17 C-1.66 16.67 -2.32 16.34 -3 16 C-2.67128906 15.44570312 -2.34257812 14.89140625 -2.00390625 14.3203125 C-0.83846649 11.62665018 -0.82864246 9.7923822 -0.9375 6.875 C-1.09722222 2.19444444 -1.09722222 2.19444444 0 0 Z " fill="#71838D" transform="translate(218,210)"/>
<path d="M0 0 C0.33 0 0.66 0 1 0 C1 1.65 1 3.3 1 5 C1.99 5.33 2.98 5.66 4 6 C3.46375 6.103125 2.9275 6.20625 2.375 6.3125 C-0.63362604 7.18341806 -3.2252006 8.55479198 -6 10 C-7.33333333 10.66666667 -8.66666667 11.33333333 -10 12 C-7.21991489 8.39618597 -4.215198 5.215198 -1 2 C-0.67 1.34 -0.34 0.68 0 0 Z " fill="#E4CC83" transform="translate(354,140)"/>
<path d="M0 0 C0.66 0 1.32 0 2 0 C2 1.32 2 2.64 2 4 C3.98 4 5.96 4 8 4 C8.33 4.66 8.66 5.32 9 6 C5.78548731 7.60725635 2.56387464 7.05748185 -1 7 C-0.67 4.69 -0.34 2.38 0 0 Z " fill="#233238" transform="translate(224,252)"/>
<path d="M0 0 C1.93681161 -0.08107583 3.8745934 -0.13922475 5.8125 -0.1875 C6.89144531 -0.22230469 7.97039062 -0.25710937 9.08203125 -0.29296875 C12 0 12 0 15 3 C10.05 3 5.1 3 0 3 C0 2.01 0 1.02 0 0 Z " fill="#313D45" transform="translate(481,248)"/>
<path d="M0 0 C0.66 0 1.32 0 2 0 C0.61436803 3.34861059 -0.76027096 5.29014301 -4 7 C-7.67293796 6.77962372 -9.36966546 6.63033454 -12 4 C-11.38511719 3.96261719 -10.77023438 3.92523438 -10.13671875 3.88671875 C-9.32847656 3.82097656 -8.52023438 3.75523437 -7.6875 3.6875 C-6.88699219 3.62949219 -6.08648437 3.57148438 -5.26171875 3.51171875 C-2.61257517 2.9123443 -1.79526159 1.96373189 0 0 Z " fill="#60737A" transform="translate(99,221)"/>
<path d="M0 0 C0.99 0 1.98 0 3 0 C3.70180531 1.4096347 4.38593958 2.82807641 5.0625 4.25 C5.44535156 5.03890625 5.82820312 5.8278125 6.22265625 6.640625 C7.08564091 9.25993522 6.93045933 10.44855176 6 13 C3 7.25 3 7.25 3 5 C1.68 4.34 0.36 3.68 -1 3 C-0.67 2.01 -0.34 1.02 0 0 Z " fill="#536973" transform="translate(590,178)"/>
<path d="M0 0 C1.42892578 0.11794922 1.42892578 0.11794922 2.88671875 0.23828125 C5.3125 0.6875 5.3125 0.6875 7.3125 2.6875 C6.56484375 2.67589844 5.8171875 2.66429687 5.046875 2.65234375 C4.06203125 2.64332031 3.0771875 2.63429687 2.0625 2.625 C1.08796875 2.61339844 0.1134375 2.60179687 -0.890625 2.58984375 C-3.34508678 2.67554423 -5.34918914 2.98043934 -7.6875 3.6875 C-7.6875 3.0275 -7.6875 2.3675 -7.6875 1.6875 C-9.6675 2.0175 -11.6475 2.3475 -13.6875 2.6875 C-9.12064884 -0.35706744 -5.38183674 -0.49192778 0 0 Z " fill="#63747B" transform="translate(516.6875,169.3125)"/>
<path d="M0 0 C-0.73605469 0.39832031 -1.47210938 0.79664063 -2.23046875 1.20703125 C-3.20628906 1.73683594 -4.18210937 2.26664063 -5.1875 2.8125 C-6.63189453 3.59560547 -6.63189453 3.59560547 -8.10546875 4.39453125 C-10.77398357 5.87463866 -13.39374227 7.41337509 -16 9 C-14.5276199 5.20324457 -12.58072974 3.75375977 -9.125 1.6875 C-8.26132812 1.15511719 -7.39765625 0.62273437 -6.5078125 0.07421875 C-3.74762209 -1.1081058 -2.73863822 -1.08908636 0 0 Z " fill="#E4D18F" transform="translate(399,148)"/>
<path d="M0 0 C0.66 0.33 1.32 0.66 2 1 C1.62952882 3.74148672 1.31412056 5.58593199 -0.375 7.8125 C-2 9 -2 9 -5 9 C-5 8.34 -5 7.68 -5 7 C-4.34 6.67 -3.68 6.34 -3 6 C-4.65 5.67 -6.3 5.34 -8 5 C-7.360625 4.87625 -6.72125 4.7525 -6.0625 4.625 C-5.381875 4.41875 -4.70125 4.2125 -4 4 C-3.67 3.34 -3.34 2.68 -3 2 C-2.34 2 -1.68 2 -1 2 C-0.67 1.34 -0.34 0.68 0 0 Z " fill="#6C7A7E" transform="translate(307,251)"/>
<path d="M0 0 C0.66 0 1.32 0 2 0 C1.5625 2.375 1.5625 2.375 0 5 C-2.94119871 6.07001562 -5.90584243 6.57343918 -9 7 C-9 7.66 -9 8.32 -9 9 C-10.32 8.67 -11.64 8.34 -13 8 C-12.14535156 7.50628906 -11.29070312 7.01257813 -10.41015625 6.50390625 C-9.30542969 5.86324219 -8.20070313 5.22257813 -7.0625 4.5625 C-5.96035156 3.92441406 -4.85820312 3.28632813 -3.72265625 2.62890625 C-1.1716429 1.25289773 -1.1716429 1.25289773 0 0 Z " fill="#DBC470" transform="translate(425,216)"/>
<path d="M0 0 C2.07493465 1.69270985 2.93070018 2.52975122 3.328125 5.2265625 C3.30234375 6.01804688 3.2765625 6.80953125 3.25 7.625 C3.23453125 8.42164063 3.2190625 9.21828125 3.203125 10.0390625 C3 12 3 12 2 13 C0.33382885 13.04063832 -1.33388095 13.042721 -3 13 C-2.01 12.67 -1.02 12.34 0 12 C0 8.7 0 5.4 0 2 C-0.66 1.67 -1.32 1.34 -2 1 C-1.34 0.67 -0.68 0.34 0 0 Z " fill="#DEC981" transform="translate(412,197)"/>
<path d="M0 0 C2.3125 -0.3125 2.3125 -0.3125 5 0 C6.875 2.3125 6.875 2.3125 8 5 C7.67 5.99 7.34 6.98 7 8 C6.01 7.67 5.02 7.34 4 7 C4 6.01 4 5.02 4 4 C2.68 3.67 1.36 3.34 0 3 C0 2.01 0 1.02 0 0 Z " fill="#E4C45E" transform="translate(353,120)"/>
<path d="M0 0 C2.49310643 3.73965964 2.0603261 5.29070641 1.625 9.6875 C1.51414062 10.86699219 1.40328125 12.04648438 1.2890625 13.26171875 C1.19367187 14.16535156 1.09828125 15.06898438 1 16 C0.67 16 0.34 16 0 16 C-0.13277344 15.32453125 -0.26554688 14.6490625 -0.40234375 13.953125 C-0.57894531 13.06109375 -0.75554688 12.1690625 -0.9375 11.25 C-1.11152344 10.36828125 -1.28554688 9.4865625 -1.46484375 8.578125 C-1.92368488 6.36764947 -2.43336074 4.18487932 -3 2 C-2.01 1.34 -1.02 0.68 0 0 Z " fill="#63808A" transform="translate(525,186)"/>
<path d="M0 0 C2 1.25 2 1.25 4 3 C4 4.32 4 5.64 4 7 C1.625 6.75 1.625 6.75 -1 6 C-2.3125 3.9375 -2.3125 3.9375 -3 2 C-2.01 2 -1.02 2 0 2 C0 1.34 0 0.68 0 0 Z " fill="#576165" transform="translate(451,253)"/>
<path d="M0 0 C2.64 0 5.28 0 8 0 C8 0.66 8 1.32 8 2 C8.66 2 9.32 2 10 2 C10.33 2.33 10.66 2.66 11 3 C11.33 2.01 11.66 1.02 12 0 C12.33 1.65 12.66 3.3 13 5 C11.35 5.33 9.7 5.66 8 6 C7.67 4.35 7.34 2.7 7 1 C5.02 1 3.04 1 1 1 C0.67 1.66 0.34 2.32 0 3 C0 2.01 0 1.02 0 0 Z " fill="#7F8A8E" transform="translate(199,254)"/>
<path d="M0 0 C4.875 0.875 4.875 0.875 6 2 C6.04063832 3.66617115 6.042721 5.33388095 6 7 C5.67 5.68 5.34 4.36 5 3 C4.01 3.495 4.01 3.495 3 4 C2.67 4.99 2.34 5.98 2 7 C1.34 6.67 0.68 6.34 0 6 C0.33 5.34 0.66 4.68 1 4 C-0.32 4 -1.64 4 -3 4 C-3.33 4.99 -3.66 5.98 -4 7 C-4 5.68 -4 4.36 -4 3 C-2.35 3 -0.7 3 1 3 C0.67 2.01 0.34 1.02 0 0 Z " fill="#626E75" transform="translate(263,241)"/>
<path d="M0 0 C3.63 0.33 7.26 0.66 11 1 C11 1.66 11 2.32 11 3 C7.37 3 3.74 3 0 3 C-0.33 3.99 -0.66 4.98 -1 6 C-1.66 5.01 -2.32 4.02 -3 3 C-2.01 2.67 -1.02 2.34 0 2 C0 1.34 0 0.68 0 0 Z " fill="#627581" transform="translate(454,182)"/>
<path d="M0 0 C0 0.99 0 1.98 0 3 C0.66 2.67 1.32 2.34 2 2 C2.99 2.33 3.98 2.66 5 3 C4.360625 3.433125 3.72125 3.86625 3.0625 4.3125 C0.73253997 5.91239177 0.73253997 5.91239177 0 9 C-1.32 8.67 -2.64 8.34 -4 8 C-2.25 2.25 -2.25 2.25 0 0 Z " fill="#ACC4C6" transform="translate(255,147)"/>
<path d="M0 0 C1.98 0 3.96 0 6 0 C6 0.66 6 1.32 6 2 C6.9075 1.9175 7.815 1.835 8.75 1.75 C12.71037702 2.05464439 13.4184859 3.14911051 16 6 C14.26982492 5.54548816 12.54090123 5.08621143 10.8125 4.625 C9.84957031 4.36976563 8.88664062 4.11453125 7.89453125 3.8515625 C5.17789793 3.05233704 2.60862825 2.0968638 0 1 C0 0.67 0 0.34 0 0 Z " fill="#DFCB8D" transform="translate(394,192)"/>
<path d="M0 0 C1.32 0.33 2.64 0.66 4 1 C5.06723961 4.46222615 5.10173486 7.64039266 5.0625 11.25 C5.05347656 12.32765625 5.04445313 13.4053125 5.03515625 14.515625 C5.02355469 15.33546875 5.01195312 16.1553125 5 17 C4.01 17 3.02 17 2 17 C2.02320313 16.10796875 2.04640625 15.2159375 2.0703125 14.296875 C2.09738281 12.54117188 2.09738281 12.54117188 2.125 10.75 C2.14820313 9.58984375 2.17140625 8.4296875 2.1953125 7.234375 C2.0103949 4.17213954 1.60823023 2.55797249 0 0 Z " fill="#EACF90" transform="translate(353,123)"/>
<path d="M0 0 C0.66 0 1.32 0 2 0 C2.185625 1.7015625 2.185625 1.7015625 2.375 3.4375 C2.684375 5.2009375 2.684375 5.2009375 3 7 C3.66 7.33 4.32 7.66 5 8 C5 6.02 5 4.04 5 2 C5.33 2 5.66 2 6 2 C6 4.64 6 7.28 6 10 C4.68 10.33 3.36 10.66 2 11 C1.66550467 9.35440244 1.33243501 7.70851502 1 6.0625 C0.814375 5.14597656 0.62875 4.22945312 0.4375 3.28515625 C0 1 0 1 0 0 Z " fill="#6E7D7E" transform="translate(372,249)"/>
<path d="M0 0 C0.33 0.99 0.66 1.98 1 3 C1.99 3.33 2.98 3.66 4 4 C3.67 5.98 3.34 7.96 3 10 C2.01 10 1.02 10 0 10 C0 6.7 0 3.4 0 0 Z " fill="#253337" transform="translate(441,249)"/>
<path d="M0 0 C0 0.33 0 0.66 0 1 C-0.67546875 1.18175781 -1.3509375 1.36351562 -2.046875 1.55078125 C-3.38492187 1.92783203 -3.38492187 1.92783203 -4.75 2.3125 C-5.63171875 2.55613281 -6.5134375 2.79976562 -7.421875 3.05078125 C-10.05772505 4.02125331 -11.85407326 5.21005644 -14 7 C-14 5.35 -14 3.7 -14 2 C-9.15758367 0.66416101 -5.06562383 -0.25328119 0 0 Z " fill="#DFCC8A" transform="translate(347,185)"/>
<path d="M0 0 C1.65 0 3.3 0 5 0 C3.68 0.33 2.36 0.66 1 1 C1.33 3.31 1.66 5.62 2 8 C0.68 7.67 -0.64 7.34 -2 7 C-2 5.68 -2 4.36 -2 3 C-1.34 3 -0.68 3 0 3 C0 2.01 0 1.02 0 0 Z " fill="#57696A" transform="translate(396,244)"/>
<path d="M0 0 C1.98 0.99 1.98 0.99 4 2 C4 4.97 4 7.94 4 11 C3.34 10.67 2.68 10.34 2 10 C1.3671875 7.71484375 1.3671875 7.71484375 0.875 4.9375 C0.70742188 4.01839844 0.53984375 3.09929687 0.3671875 2.15234375 C0.24601562 1.44207031 0.12484375 0.73179687 0 0 Z " fill="#233340" transform="translate(433,243)"/>
<path d="M0 0 C0.94875 0.04125 1.8975 0.0825 2.875 0.125 C3.205 2.435 3.535 4.745 3.875 7.125 C2.885 7.455 1.895 7.785 0.875 8.125 C0.875 6.475 0.875 4.825 0.875 3.125 C-2.095 2.63 -2.095 2.63 -5.125 2.125 C-3.125 0.125 -3.125 0.125 0 0 Z " fill="#25343D" transform="translate(352.125,241.875)"/>
<path d="M0 0 C1.98 0 3.96 0 6 0 C6 0.99 6 1.98 6 3 C7.65 3 9.3 3 11 3 C10.67 3.66 10.34 4.32 10 5 C5.27635085 5 3.7011388 3.7758541 0 1 C0 0.67 0 0.34 0 0 Z " fill="#E1C680" transform="translate(322,220)"/>
<path d="M0 0 C0.99 0 1.98 0 3 0 C3.50615298 1.26839526 4.00469099 2.53983102 4.5 3.8125 C4.91765625 4.87404297 4.91765625 4.87404297 5.34375 5.95703125 C6 8 6 8 6 11 C5.34 11 4.68 11 4 11 C3.32591692 9.73308493 2.66099503 8.46129251 2 7.1875 C1.62875 6.47980469 1.2575 5.77210938 0.875 5.04296875 C0 3 0 3 0 0 Z " fill="#546A74" transform="translate(140,193)"/>
<path d="M0 0 C1.32 0 2.64 0 4 0 C2.54744301 3.82946843 0.57104439 5.12050295 -3 7 C-2.25 2.25 -2.25 2.25 0 0 Z " fill="#46626F" transform="translate(113,150)"/>
<path d="M0 0 C2.97 0.495 2.97 0.495 6 1 C6 1.99 6 2.98 6 4 C3.36 4 0.72 4 -2 4 C-1.34 2.68 -0.68 1.36 0 0 Z " fill="#415056" transform="translate(397,256)"/>
<path d="M0 0 C2.97 0.495 2.97 0.495 6 1 C6.33 2.32 6.66 3.64 7 5 C4.23723823 4.47731534 1.6739124 3.89130413 -1 3 C-0.67 2.01 -0.34 1.02 0 0 Z " fill="#596D7C" transform="translate(233,171)"/>
<path d="M0 0 C1.65 0 3.3 0 5 0 C5 0.99 5 1.98 5 3 C5.66 3 6.32 3 7 3 C7 3.66 7 4.32 7 5 C5.02 5 3.04 5 1 5 C0.67 3.35 0.34 1.7 0 0 Z " fill="#E1C160" transform="translate(328,149)"/>
<path d="M0 0 C0.33 0 0.66 0 1 0 C1 1.65 1 3.3 1 5 C0.34 5 -0.32 5 -1 5 C-1 6.32 -1 7.64 -1 9 C-3.60582371 9.93065133 -4.64198224 10.14917407 -7.25 9.0625 C-7.8275 8.711875 -8.405 8.36125 -9 8 C-8.071875 7.79375 -7.14375 7.5875 -6.1875 7.375 C-2.73995905 6.25553808 -2.73995905 6.25553808 -1.125 2.875 C-0.75375 1.92625 -0.3825 0.9775 0 0 Z " fill="#E2CD90" transform="translate(353,202)"/>
<path d="M0 0 C5.75 -0.125 5.75 -0.125 8 1 C8.75 3.9375 8.75 3.9375 9 7 C8.34 7.66 7.68 8.32 7 9 C6.773125 8.05125 6.54625 7.1025 6.3125 6.125 C5.30916286 2.80676612 5.30916286 2.80676612 2.375 1.625 C1.59125 1.41875 0.8075 1.2125 0 1 C0 0.67 0 0.34 0 0 Z " fill="#DDC47E" transform="translate(347,186)"/>
<path d="M0 0 C3.8063457 0.67170806 7.35206816 1.72746564 11 3 C11 3.66 11 4.32 11 5 C4.6 4.50769231 4.6 4.50769231 1.5625 1.9375 C1.046875 1.298125 0.53125 0.65875 0 0 Z " fill="#BBC7C5" transform="translate(253,161)"/>
<path d="M0 0 C6.64615385 3.32307692 6.64615385 3.32307692 8.4375 6.75 C8.623125 7.4925 8.80875 8.235 9 9 C6 9 6 9 4.39453125 7.5390625 C3.61142578 6.59160156 3.61142578 6.59160156 2.8125 5.625 C2.28269531 4.99851563 1.75289063 4.37203125 1.20703125 3.7265625 C0 2 0 2 0 0 Z " fill="#E0CA8F" transform="translate(419,150)"/>
<path d="M0 0 C0.33 0.99 0.66 1.98 1 3 C2.65 3 4.3 3 6 3 C5.67 3.66 5.34 4.32 5 5 C1.9375 5.625 1.9375 5.625 -1 6 C-1.33 4.35 -1.66 2.7 -2 1 C-1.34 0.67 -0.68 0.34 0 0 Z " fill="#2D4441" transform="translate(257,253)"/>
<path d="M0 0 C0.99 0.99 1.98 1.98 3 3 C2.67 3.99 2.34 4.98 2 6 C0.02 6.33 -1.96 6.66 -4 7 C-3.34 6.67 -2.68 6.34 -2 6 C-2 4.68 -2 3.36 -2 2 C-1.34 2 -0.68 2 0 2 C0 1.34 0 0.68 0 0 Z " fill="#636D70" transform="translate(305,242)"/>
<path d="M0 0 C1.32 0.66 2.64 1.32 4 2 C0.535 4.97 0.535 4.97 -3 8 C-3 6.68 -3 5.36 -3 4 C-2.34 4 -1.68 4 -1 4 C-0.67 2.68 -0.34 1.36 0 0 Z " fill="#5D737C" transform="translate(532,214)"/>
<path d="M0 0 C6.93 0.495 6.93 0.495 14 1 C14 1.33 14 1.66 14 2 C7.565 2.495 7.565 2.495 1 3 C0.67 2.01 0.34 1.02 0 0 Z " fill="#E2CB88" transform="translate(394,209)"/>
<path d="M0 0 C2.42130331 2.42130331 2.52840504 3.80111377 3.125 7.125 C3.29257813 8.03507813 3.46015625 8.94515625 3.6328125 9.8828125 C3.81457031 10.93082031 3.81457031 10.93082031 4 12 C3.34 12 2.68 12 2 12 C2 11.01 2 10.02 2 9 C1.34 8.67 0.68 8.34 0 8 C0 5.36 0 2.72 0 0 Z " fill="#5B727B" transform="translate(146,204)"/>
<path d="M0 0 C4.29 0 8.58 0 13 0 C10.67244147 2.32755853 9.17326755 3.13456339 6 4 C2.6875 3.125 2.6875 3.125 0 2 C0 1.34 0 0.68 0 0 Z " fill="#345161" transform="translate(567,171)"/>
<path d="M0 0 C0.66 0.33 1.32 0.66 2 1 C2.36923077 7.52307692 2.36923077 7.52307692 0.5 9.9375 C0.005 10.288125 -0.49 10.63875 -1 11 C-1.99 10.34 -2.98 9.68 -4 9 C-3.01 8.67 -2.02 8.34 -1 8 C-0.67 5.36 -0.34 2.72 0 0 Z " fill="#DDC987" transform="translate(370,136)"/>
<path d="M0 0 C0.66 0 1.32 0 2 0 C2 1.98 2 3.96 2 6 C2.66 6 3.32 6 4 6 C4 4.02 4 2.04 4 0 C4.33 0 4.66 0 5 0 C5 2.64 5 5.28 5 8 C3.68 8 2.36 8 1 8 C0.67 5.36 0.34 2.72 0 0 Z " fill="#636D70" transform="translate(275,251)"/>
<path d="M0 0 C0.33 0 0.66 0 1 0 C1.125 7.625 1.125 7.625 0 11 C-0.99 11 -1.98 11 -3 11 C-2.01 7.37 -1.02 3.74 0 0 Z " fill="#637887" transform="translate(97,185)"/>
<path d="M0 0 C2.97 0.495 2.97 0.495 6 1 C5.34 1.391875 4.68 1.78375 4 2.1875 C1.73564864 3.84237728 1.73564864 3.84237728 1.6875 6.5625 C1.8642238 9.00331739 1.8642238 9.00331739 3 11 C2.01 10.67 1.02 10.34 0 10 C0 6.7 0 3.4 0 0 Z " fill="#E5D28F" transform="translate(396,163)"/>
<path d="M0 0 C0.33 0.99 0.66 1.98 1 3 C-2.07999946 6.67230705 -4.2482602 7.56802365 -9 8 C-7 5 -7 5 -3.875 4.3125 C-2.92625 4.209375 -1.9775 4.10625 -1 4 C-0.67 2.68 -0.34 1.36 0 0 Z " fill="#7F8E91" transform="translate(561,243)"/>
<path d="M0 0 C1.32 0 2.64 0 4 0 C4 1.32 4 2.64 4 4 C1.69 4.33 -0.62 4.66 -3 5 C-1.75 2.5 -1.75 2.5 0 0 Z " fill="#636A69" transform="translate(464,248)"/>
<path d="M0 0 C1.32 0.33 2.64 0.66 4 1 C2.6875 3.5 2.6875 3.5 1 6 C0.01 6 -0.98 6 -2 6 C-1.34 4.02 -0.68 2.04 0 0 Z " fill="#243740" transform="translate(244,242)"/>
<path d="M0 0 C0.33 0.66 0.66 1.32 1 2 C2.32 2.33 3.64 2.66 5 3 C4.67 6.63 4.34 10.26 4 14 C3.67 14 3.34 14 3 14 C2.67 10.7 2.34 7.4 2 4 C1.01 4 0.02 4 -1 4 C-0.67 2.68 -0.34 1.36 0 0 Z " fill="#798D96" transform="translate(499,188)"/>
<path d="M0 0 C1.67542976 0.28604898 3.34385343 0.61781233 5 1 C5.33 2.65 5.66 4.3 6 6 C5.01 6 4.02 6 3 6 C3 4.68 3 3.36 3 2 C1.68 1.67 0.36 1.34 -1 1 C-0.67 0.67 -0.34 0.34 0 0 Z " fill="#22323A" transform="translate(445,249)"/>
<path d="M0 0 C0.66 0 1.32 0 2 0 C2 0.66 2 1.32 2 2 C3.32 1.67 4.64 1.34 6 1 C6.66 2.98 7.32 4.96 8 7 C6.66144944 6.21718695 5.32926356 5.42348123 4 4.625 C3.2575 4.18414062 2.515 3.74328125 1.75 3.2890625 C1.1725 2.86367187 0.595 2.43828125 0 2 C0 1.34 0 0.68 0 0 Z " fill="#5C6E78" transform="translate(202,247)"/>
<path d="M0 0 C1.9375 0.75 1.9375 0.75 4 2 C4.75 4.125 4.75 4.125 5 6 C3.68 6 2.36 6 1 6 C0.67 4.02 0.34 2.04 0 0 Z " fill="#253239" transform="translate(337,242)"/>
<path d="M0 0 C0.66 0 1.32 0 2 0 C2 0.99 2 1.98 2 3 C2.66 3 3.32 3 4 3 C4 3.99 4 4.98 4 6 C3.34 6 2.68 6 2 6 C1.34 7.32 0.68 8.64 0 10 C0 6.7 0 3.4 0 0 Z " fill="#27343A" transform="translate(222,242)"/>
<path d="M0 0 C2.475 0.495 2.475 0.495 5 1 C5 1.99 5 2.98 5 4 C4.34 4 3.68 4 3 4 C2.34 4.66 1.68 5.32 1 6 C0.67 4.02 0.34 2.04 0 0 Z " fill="#566468" transform="translate(270,241)"/>
<path d="M0 0 C2.31 0.33 4.62 0.66 7 1 C7 1.99 7 2.98 7 4 C4.69 3.67 2.38 3.34 0 3 C0 2.01 0 1.02 0 0 Z " fill="#657B82" transform="translate(439,224)"/>
<path d="M0 0 C2.97 0.495 2.97 0.495 6 1 C4.35 2.65 2.7 4.3 1 6 C0.34 5.67 -0.32 5.34 -1 5 C-0.67 3.35 -0.34 1.7 0 0 Z " fill="#566F79" transform="translate(504,184)"/>
<path d="M0 0 C1.32 0.33 2.64 0.66 4 1 C4.33 3.31 4.66 5.62 5 8 C2.5 5.6875 2.5 5.6875 0 3 C0 2.01 0 1.02 0 0 Z " fill="#E3CC90" transform="translate(381,180)"/>
<path d="M0 0 C4.29 0.99 8.58 1.98 13 3 C13 3.33 13 3.66 13 4 C9.37 4 5.74 4 2 4 C1.34 2.68 0.68 1.36 0 0 Z " fill="#DECB85" transform="translate(399,175)"/>
<path d="M0 0 C3.0625 0.25 3.0625 0.25 6.0625 2.25 C5.7325 2.91 5.4025 3.57 5.0625 4.25 C1.7625 3.59 -1.5375 2.93 -4.9375 2.25 C-2.9375 0.25 -2.9375 0.25 0 0 Z " fill="#E1CD83" transform="translate(406.9375,161.75)"/>
<path d="M0 0 C-0.57344937 2.86724686 -0.8614515 3.8614515 -3 6 C-3.33 5.67 -3.66 5.34 -4 5 C-4.66 5.66 -5.32 6.32 -6 7 C-6 5.68 -6 4.36 -6 3 C-5.34 3 -4.68 3 -4 3 C-4 2.34 -4 1.68 -4 1 C-2 0 -2 0 0 0 Z " fill="#E0C462" transform="translate(323,124)"/>
<path d="M0 0 C1.98 0 3.96 0 6 0 C6.33 1.65 6.66 3.3 7 5 C6.34 3.68 5.68 2.36 5 1 C3.68 1 2.36 1 1 1 C1.33 2.32 1.66 3.64 2 5 C1.01 5.33 0.02 5.66 -1 6 C-0.67 4.02 -0.34 2.04 0 0 Z " fill="#748488" transform="translate(200,241)"/>
<path d="M0 0 C0.66 0.66 1.32 1.32 2 2 C1.625 4.125 1.625 4.125 1 6 C0.67 5.34 0.34 4.68 0 4 C-0.66 4 -1.32 4 -2 4 C-2.33 4.66 -2.66 5.32 -3 6 C-3 5.01 -3 4.02 -3 3 C-4.32 2.67 -5.64 2.34 -7 2 C-4.69 1.34 -2.38 0.68 0 0 Z " fill="#697378" transform="translate(233,242)"/>
<path d="M0 0 C0.33 0.66 0.66 1.32 1 2 C2.3153341 2.70151152 3.65117592 3.36525925 5 4 C5.99 4.66 6.98 5.32 8 6 C4.625 5.75 4.625 5.75 1 5 C-0.4375 2.9375 -0.4375 2.9375 -1 1 C-0.67 0.67 -0.34 0.34 0 0 Z " fill="#8797A0" transform="translate(207,222)"/>
<path d="M0 0 C2.26185454 2.26185454 3.03921617 3.96983561 4 7 C3.67 7.99 3.34 8.98 3 10 C3 9.34 3 8.68 3 8 C2.01 8 1.02 8 0 8 C0 5.36 0 2.72 0 0 Z " fill="#77868E" transform="translate(131,163)"/>
<path d="M0 0 C1.9375 0.6875 1.9375 0.6875 4 2 C4.75 4.625 4.75 4.625 5 7 C4.34 7 3.68 7 3 7 C1.61767557 5.37373596 0.28062485 3.7074998 -1 2 C-0.67 1.34 -0.34 0.68 0 0 Z " fill="#B3C3C0" transform="translate(266,147)"/>
<path d="M0 0 C0.66 0.33 1.32 0.66 2 1 C2.25 7.625 2.25 7.625 0 11 C-0.66 11 -1.32 11 -2 11 C-1.67 9.68 -1.34 8.36 -1 7 C-0.34 7 0.32 7 1 7 C0.67 4.69 0.34 2.38 0 0 Z " fill="#606A6A" transform="translate(355,242)"/>
<path d="M0 0 C6.0546875 -0.1953125 6.0546875 -0.1953125 8 0 C8.66 0.66 9.32 1.32 10 2 C4.58461538 3.23076923 4.58461538 3.23076923 1.625 2.0625 C1.08875 1.711875 0.5525 1.36125 0 1 C0 0.67 0 0.34 0 0 Z " fill="#B1C6C2" transform="translate(256,225)"/>
<path d="M0 0 C1.3921875 0.0928125 1.3921875 0.0928125 2.8125 0.1875 C3.1425 0.8475 3.4725 1.5075 3.8125 2.1875 C0.5125 2.5175 -2.7875 2.8475 -6.1875 3.1875 C-3.1875 0.1875 -3.1875 0.1875 0 0 Z " fill="#DFC894" transform="translate(362.1875,168.8125)"/>
<path d="M0 0 C0.86625 0.3403125 0.86625 0.3403125 1.75 0.6875 C1.75 1.3475 1.75 2.0075 1.75 2.6875 C-4 3.8125 -4 3.8125 -6.25 2.6875 C-2.80384615 -0.38942308 -2.80384615 -0.38942308 0 0 Z " fill="#DAC9BE" transform="translate(283.25,169.3125)"/>
<path d="M0 0 C0.66 0 1.32 0 2 0 C2.33 2.31 2.66 4.62 3 7 C2.01 7.33 1.02 7.66 0 8 C0 5.36 0 2.72 0 0 Z " fill="#D9C774" transform="translate(427,160)"/>
<path d="M0 0 C2.97 0.495 2.97 0.495 6 1 C5.67 1.99 5.34 2.98 5 4 C3.68 4 2.36 4 1 4 C0.67 2.68 0.34 1.36 0 0 Z " fill="#203738" transform="translate(397,248)"/>
<path d="M0 0 C1.32 0 2.64 0 4 0 C3.67 1.65 3.34 3.3 3 5 C2.01 4.67 1.02 4.34 0 4 C0 2.68 0 1.36 0 0 Z " fill="#384549" transform="translate(281,241)"/>
<path d="M0 0 C0.91007812 0.10183594 1.82015625 0.20367187 2.7578125 0.30859375 C3.45648438 0.39238281 4.15515625 0.47617188 4.875 0.5625 C4.875 0.8925 4.875 1.2225 4.875 1.5625 C3.43965159 1.7851746 2.00154475 1.99011906 0.5625 2.1875 C-0.23800781 2.30351562 -1.03851563 2.41953125 -1.86328125 2.5390625 C-4.125 2.5625 -4.125 2.5625 -7.125 0.5625 C-4.50184968 -0.74907516 -2.89466564 -0.33399988 0 0 Z " fill="#DEC979" transform="translate(399.125,225.4375)"/>
<path d="M0 0 C-0.33 0.66 -0.66 1.32 -1 2 C-3.375 2.75 -3.375 2.75 -6 3 C-6.99 2.34 -7.98 1.68 -9 1 C-3.375 -1.125 -3.375 -1.125 0 0 Z " fill="#6E818D" transform="translate(149,225)"/>
<path d="M0 0 C1.32 0.33 2.64 0.66 4 1 C4.33 2.32 4.66 3.64 5 5 C3.02 5.99 3.02 5.99 1 7 C1.020625 6.21625 1.04125 5.4325 1.0625 4.625 C1.18684063 2.01885039 1.18684063 2.01885039 0 0 Z " fill="#577681" transform="translate(241,220)"/>
<path d="M0 0 C0.99 0.495 0.99 0.495 2 1 C1.67 1.66 1.34 2.32 1 3 C1.66 3 2.32 3 3 3 C3.66 4.65 4.32 6.3 5 8 C4.01 8.495 4.01 8.495 3 9 C0.70620251 5.55930376 0 4.27709699 0 0 Z " fill="#6D8088" transform="translate(135,217)"/>
<path d="M0 0 C0 1.98 0 3.96 0 6 C-2 3 -2 3 -2 1 C-4.64 1 -7.28 1 -10 1 C-10 0.67 -10 0.34 -10 0 C-2.25 -1.125 -2.25 -1.125 0 0 Z " fill="#4F6070" transform="translate(135,210)"/>
<path d="M0 0 C2 1.375 2 1.375 4 3 C4 3.66 4 4.32 4 5 C5.32 5.66 6.64 6.32 8 7 C4.83119306 7 3.56310828 6.7941758 1 5 C0.25 2.375 0.25 2.375 0 0 Z " fill="#E8D18F" transform="translate(325,141)"/>
<path d="M0 0 C0.33 0 0.66 0 1 0 C1 1.98 1 3.96 1 6 C0.01 6 -0.98 6 -2 6 C-2.66 4.35 -3.32 2.7 -4 1 C-3.01 1.33 -2.02 1.66 -1 2 C-0.67 1.34 -0.34 0.68 0 0 Z " fill="#687474" transform="translate(252,254)"/>
<path d="M0 0 C0.99 1.32 1.98 2.64 3 4 C3.33 3.34 3.66 2.68 4 2 C4 2.99 4 3.98 4 5 C2.02 5.33 0.04 5.66 -2 6 C-1.34 4.02 -0.68 2.04 0 0 Z " fill="#526369" transform="translate(198,247)"/>
<path d="M0 0 C1 2 1 2 0.1875 5.0625 C-1 8 -1 8 -3 9 C-2.5020163 5.26512223 -2.12508244 3.18762365 0 0 Z " fill="#7D898D" transform="translate(422,243)"/>
<path d="M0 0 C1.32 0.99 2.64 1.98 4 3 C3.67 3.99 3.34 4.98 3 6 C2.34 6 1.68 6 1 6 C1 5.34 1 4.68 1 4 C-0.32 3.67 -1.64 3.34 -3 3 C-2.01 2.01 -1.02 1.02 0 0 Z " fill="#69757B" transform="translate(280,243)"/>
<path d="M0 0 C0 0.66 0 1.32 0 2 C-3.81756824 3.37432457 -7.07255329 2.67975039 -11 2 C-11 1.67 -11 1.34 -11 1 C-7.26513121 0.4254048 -3.78706732 0 0 0 Z " fill="#D2BD68" transform="translate(412,210)"/>
<path d="M0 0 C0.66 0.33 1.32 0.66 2 1 C1.6875 2.875 1.6875 2.875 1 5 C0.01 5.66 -0.98 6.32 -2 7 C-2 5.68 -2 4.36 -2 3 C-1.34 3 -0.68 3 0 3 C0 2.01 0 1.02 0 0 Z M2 0 C4 1 4 1 4 1 Z " fill="#35505E" transform="translate(100,182)"/>
<path d="M0 0 C0 0.66 0 1.32 0 2 C-3.3 1.34 -6.6 0.68 -10 0 C-10 -0.33 -10 -0.66 -10 -1 C-5.94568308 -2.15837626 -3.78187881 -1.83691257 0 0 Z " fill="#576871" transform="translate(521,185)"/>
<path d="M0 0 C1.4540625 0.0309375 1.4540625 0.0309375 2.9375 0.0625 C-1.5625 3.0625 -1.5625 3.0625 -6.0625 6.0625 C-3.76028481 0.07674051 -3.76028481 0.07674051 0 0 Z " fill="#9DB2B0" transform="translate(260.0625,145.9375)"/>
</svg>
